<?xml version="1.0" encoding="UTF-8" standalone="no"?>
<!-- Created with Inkscape (http://www.inkscape.org/) -->

<svg
   xmlns:dc="http://purl.org/dc/elements/1.1/"
   xmlns:cc="http://creativecommons.org/ns#"
   xmlns:rdf="http://www.w3.org/1999/02/22-rdf-syntax-ns#"
   xmlns:svg="http://www.w3.org/2000/svg"
   xmlns="http://www.w3.org/2000/svg"
   xmlns:sodipodi="http://sodipodi.sourceforge.net/DTD/sodipodi-0.dtd"
   xmlns:inkscape="http://www.inkscape.org/namespaces/inkscape"
   id="svg3376"
   version="1.1"
   inkscape:version="0.91 r13725"
   width="309.375"
   height="634.6875"
   viewBox="0 0 309.375 634.6875"
   sodipodi:docname="16thCenturyCostume6.svg">
  <metadata
     id="metadata3382">
    <rdf:RDF>
      <cc:Work
         rdf:about="">
        <dc:format>image/svg+xml</dc:format>
        <dc:type
           rdf:resource="http://purl.org/dc/dcmitype/StillImage" />
        <dc:title></dc:title>
      </cc:Work>
    </rdf:RDF>
  </metadata>
  <defs
     id="defs3380" />
  <sodipodi:namedview
     pagecolor="#ffffff"
     bordercolor="#666666"
     borderopacity="1"
     objecttolerance="10"
     gridtolerance="10"
     guidetolerance="10"
     inkscape:pageopacity="0"
     inkscape:pageshadow="2"
     inkscape:window-width="1600"
     inkscape:window-height="837"
     id="namedview3378"
     showgrid="false"
     inkscape:zoom="1.0556376"
     inkscape:cx="154.6875"
     inkscape:cy="317.34375"
     inkscape:window-x="-8"
     inkscape:window-y="-8"
     inkscape:window-maximized="1"
     inkscape:current-layer="svg3376" />
  <path
     style="fill:#000000"
     d="m 170.85937,633.48615 c -3.8462,-1.75077 -2.19531,-2.54865 5.27344,-2.54865 10.11204,0 13.24219,-0.71326 13.24219,-3.01746 0,-1.05714 -0.80101,-2.05504 -1.875,-2.3359 -2.11245,-0.55242 -2.46715,-1.77326 -0.70313,-2.42008 2.33318,-0.8555 -0.95819,-2.7738 -4.93827,-2.87816 -2.71143,-0.0711 -4.26824,0.39481 -5.09437,1.52461 -1.33054,1.81963 -4.62624,2.24425 -4.05218,0.52209 0.20256,-0.60769 0.976,-1.38587 1.71875,-1.72928 0.74274,-0.34342 2.29394,-1.11184 3.4471,-1.7076 1.15317,-0.59578 3.36801,-1.08322 4.92188,-1.08322 2.33877,0 2.82522,-0.37853 2.82522,-2.19845 0,-3.11126 -2.84595,-5.30155 -6.88855,-5.30155 -3.20443,0 -3.4171,-0.16965 -2.88253,-2.2995 0.55203,-2.19949 0.4203,-2.27756 -3.02902,-1.79508 -5.38577,0.75337 -5.52668,0.8404 -7.25453,4.48161 -1.23933,2.61168 -1.45665,4.63868 -0.96408,8.99234 0.34974,3.09135 1.00328,5.62063 1.45231,5.62063 0.44901,0 0.8164,1.05469 0.8164,2.34375 0,3.17716 -1.40973,2.95087 -6.23157,-1.00027 -2.64336,-2.16602 -4.08093,-4.09634 -4.08093,-5.47969 0,-4.41239 -2.58155,-5.35537 -13.87331,-5.06758 -8.89688,0.22675 -10.60422,0.0266 -12.21595,-1.43199 -1.76339,-1.59585 -2.33325,-1.61257 -9.68904,-0.28443 -13.54351,2.4454 -18.71904,2.72923 -23.292103,1.27739 -11.176738,-3.54837 -11.666916,-3.63766 -14.350003,-2.61404 -2.785055,1.06252 -22.878947,1.40875 -25.409169,0.43781 C 56.917316,613.18047 56.25,612.3846 56.25,611.72485 c 0,-0.65974 -1.160156,-1.41912 -2.578125,-1.6875 -5.716699,-1.08198 -15.801218,-3.70002 -17.331029,-4.49931 -0.895347,-0.4678 -2.341958,-0.85054 -3.214689,-0.85054 -0.872732,0 -3.0933,-0.4864 -4.934596,-1.08089 -9.375169,-3.02693 -11.373629,-3.92943 -10.245264,-4.6268 0.787329,-0.4866 0.293989,-0.94701 -1.496143,-1.39631 -4.039809,-1.01393 -8.7797879,-4.38304 -9.1180244,-6.48097 -0.1654838,-1.02642 -1.3914133,-2.38716 -2.7242878,-3.02387 -2.0365998,-0.97289 -2.6193542,-2.19614 -3.65103914,-7.66386 -1.50697024,-7.98664 -0.2590247,-25.2538 2.79364594,-38.65421 2.0192114,-8.8638 2.6891159,-12.1925 4.6937961,-23.32309 0.6036349,-3.35156 2.1453813,-10.45133 3.4261033,-15.77727 1.280721,-5.32594 2.738101,-11.865 3.238623,-14.53125 0.500521,-2.66625 1.335821,-6.74617 1.856221,-9.06648 0.5204,-2.32031 1.281832,-6.76366 1.69207,-9.8741 0.410238,-3.11044 1.172784,-6.48544 1.694547,-7.5 0.521762,-1.01456 1.88518,-5.85246 3.029819,-10.7509 8.303346,-35.53387 8.145104,-34.82671 9.44042,-42.1875 0.589792,-3.35156 1.894875,-9.46875 2.900182,-13.59375 1.005308,-4.125 2.006285,-8.97656 2.224391,-10.78125 0.218108,-1.80469 0.668306,-5.28516 1.000442,-7.73437 0.554223,-4.08692 0.442458,-4.45313 -1.35909,-4.45313 -2.198448,0 -2.691301,2.64668 -0.837973,4.5 0.875,0.875 0.775989,1.125 -0.445546,1.125 -1.233706,0 -1.404067,0.4524 -0.794324,2.10938 0.426922,1.16015 0.581261,3.6914 0.342978,5.625 -0.36301,2.9457 -0.791499,3.51562 -2.643176,3.51562 -3.357984,0 -8.320414,-5.55304 -9.731591,-10.88981 -0.665933,-2.51842 -2.047359,-7.743 -3.069835,-11.61019 -1.022477,-3.86719 -2.177345,-7.875 -2.566373,-8.90625 -4.639634,-12.29891 -3.818887,-16.52616 4.960091,-25.54687 3.515202,-3.61201 5.484624,-4.92188 7.400126,-4.92188 1.738001,0 2.61015,-0.48791 2.61015,-1.46021 0,-3.20591 5.985872,-12.40392 14.302378,-21.97729 2.463611,-2.83594 6.290266,-7.26563 8.503676,-9.84375 2.320775,-2.70318 4.968309,-7.26712 6.254192,-10.78125 2.012615,-5.50019 2.221712,-7.52581 2.146671,-20.79583 -0.106244,-18.78791 -0.551458,-21.44997 -3.909732,-23.37736 -4.466171,-2.56323 -7.750738,-9.64921 -8.046992,-17.36022 -0.141357,-3.67932 -0.52787,-7.12792 -0.858916,-7.66356 -0.720715,-1.16615 1.781666,-18.54755 3.217245,-22.3468 1.229904,-3.25494 5.164089,-7.53693 8.550251,-9.30616 1.427322,-0.74575 3.550954,-3.42865 4.942736,-6.24443 1.342118,-2.71529 3.057419,-5.99158 3.811782,-7.28064 0.754363,-1.28906 1.377787,-3.94067 1.385388,-5.89246 0.009,-2.31545 1.317035,-6.00843 3.763821,-10.62658 2.242693,-4.23294 3.75,-8.35357 3.75,-10.25164 0,-4.10714 4.163207,-13.19525 6.655742,-14.52922 1.553223,-0.83127 2.169154,-0.71617 3.118976,0.58278 0.860964,1.17745 1.87281,1.44561 3.71242,0.9839 1.778549,-0.44639 3.001509,-0.16206 4.121868,0.95829 1.152938,1.15294 1.271578,1.70015 0.429497,1.98085 C 98.023575,132.16923 97.5,133.31321 97.5,134.4981 c 0,1.35546 -1.202278,3.07138 -3.242119,4.62724 -3.06568,2.33831 -5.787546,8.22056 -4.65317,10.05603 0.259553,0.41996 -0.177199,2.01881 -0.97056,3.553 -0.793361,1.53419 -1.337945,3.76143 -1.210187,4.94941 0.335231,3.11723 -2.288361,2.74684 -3.141594,-0.44351 -0.4782,-1.78806 0.0068,-4.72439 1.548762,-9.375 2.526063,-7.61914 2.626487,-8.17777 1.470105,-8.17777 -0.453068,0 -1.33407,1.37109 -1.957782,3.04687 -0.623711,1.67579 -1.996346,5.01601 -3.050299,7.42274 -1.180321,2.69527 -1.718162,5.39567 -1.400424,7.03125 0.28372,1.46046 0.126581,4.72758 -0.349198,7.26026 -0.985282,5.24485 -0.598315,6.11444 1.999102,4.49232 2.019375,-1.26112 2.224364,-0.97362 1.042709,1.46241 -0.43431,0.89535 -1.75856,3.63181 -2.942776,6.08102 -1.184217,2.44922 -2.492115,4.45313 -2.906442,4.45313 -0.414325,0 -0.883044,-1.79297 -1.041598,-3.98438 -0.158553,-2.1914 -0.710154,-3.92483 -1.225779,-3.85205 -0.515625,0.0728 -1.765949,2.4787 -2.778499,5.3465 -1.816022,5.14344 -1.525401,7.63758 0.637874,5.4743 1.487111,-1.48711 2.609375,-1.4012 2.609375,0.19976 0,0.72002 -1.476563,2.60557 -3.28125,4.19011 -1.804688,1.58454 -3.28125,3.52668 -3.28125,4.31587 0,1.76513 -1.294628,1.85756 -2.677618,0.19117 -0.753583,-0.90802 -0.732735,-2.03712 0.07724,-4.18298 1.919913,-5.08643 -1.370646,-5.12639 -4.367549,-0.0531 -2.149333,3.63853 -1.561539,11.11788 1.463786,18.62587 2.764687,6.8612 3.62914,7.64417 3.62914,3.28708 0,-1.99611 -0.627803,-4.32302 -1.395115,-5.17089 -1.630481,-1.80166 -2.971015,-7.5123 -1.763461,-7.5123 0.454189,0 1.793493,2.10937 2.976231,4.6875 1.237648,2.69782 2.770155,4.6875 3.610441,4.6875 0.876735,0 1.255723,0.53236 0.948657,1.33255 -0.417626,1.08833 0.423148,1.23612 4.587198,0.80635 4.976543,-0.51362 6.709361,0.47706 3.926674,2.24496 -2.16185,1.37347 -10.328338,4.00965 -11.046428,3.56585 -0.390624,-0.24142 -0.97164,0.2423 -1.291144,1.07491 -0.462667,1.20569 -0.148695,1.39399 1.542389,0.92502 1.167819,-0.32386 4.543177,-0.85606 7.500795,-1.18266 5.287071,-0.58385 5.430057,-0.53644 8.504067,2.81959 3.708833,4.0491 4.862624,4.1993 7.811958,1.01691 1.221557,-1.31809 2.641035,-2.13694 3.154382,-1.81967 1.423968,0.88006 1.111659,4.21619 -0.394697,4.21619 -0.730434,0 -2.197209,1.16016 -3.259496,2.57812 l -1.931437,2.57813 -3.068632,-3.43838 c -1.687748,-1.89111 -4.62263,-3.96963 -6.521961,-4.61894 -3.198327,-1.09336 -3.734837,-0.99425 -7.265625,1.34232 -2.096763,1.38757 -3.798878,3.04421 -3.782481,3.68143 0.01813,0.70457 0.507286,0.53012 1.248277,-0.4452 3.132597,-4.12319 10.974822,-3.85288 13.675369,0.47138 1.039054,1.66379 0.976087,1.78949 -0.563756,1.12545 -3.230257,-1.39301 -7.857882,-1.61408 -10.53913,-0.50347 -4.635017,1.91989 -5.093562,4.25959 -5.198677,26.52603 -0.08799,18.63804 0.399287,23.23201 1.988775,18.75 0.320004,-0.90234 1.117852,-2.27343 1.772995,-3.04687 1.393834,-1.64551 4.115427,-9.14697 4.135189,-11.39773 0.0075,-0.85468 1.883347,-5.49531 4.16854,-10.3125 4.80778,-10.1348 13.214287,-20.0269 21.848933,-25.71007 2.97133,-1.95568 6.10819,-4.3476 6.9708,-5.31539 2.05617,-2.30688 3.06814,-8.48196 1.78342,-10.88249 -0.55443,-1.03595 -1.00805,-2.5487 -1.00805,-3.36166 0,-0.81295 -0.80688,-3.26646 -1.79307,-5.45225 -0.98619,-2.18579 -2.28196,-5.54841 -2.8795,-7.4725 -0.59753,-1.92409 -2.47345,-6.35377 -4.16869,-9.84375 -2.949134,-6.07133 -6.15874,-16.70338 -6.15874,-20.40124 0,-2.41602 1.667381,-7.37184 4.82658,-14.34564 1.47038,-3.24581 2.67342,-6.44995 2.67342,-7.12032 0,-0.67037 0.84375,-1.98244 1.875,-2.91571 1.03125,-0.93327 1.875,-2.86476 1.875,-4.29219 0,-2.55897 -0.0386,-2.57607 -2.75727,-1.21984 -3.34239,1.6674 -8.798571,0.59961 -9.263158,-1.81282 -0.243478,-1.26427 0.425315,-1.5814 3.335006,-1.5814 6.126302,0 7.046022,-1.34034 7.205382,-10.50062 l 0.13909,-7.99491 5.1236,-7.825814 c 2.81798,-4.304198 6.71091,-9.666642 8.65094,-11.916544 3.73449,-4.33095 3.81327,-5.824612 0.30723,-5.824612 -4.83101,0 -12.74082,-3.429618 -12.74082,-5.524295 0,-0.801602 3.00954,-7.796719 6.68786,-15.544706 3.67833,-7.747987 7.0141,-14.930999 7.41281,-15.962249 3.00061,-7.760839 3.70963,-10.678903 4.63248,-19.065673 1.13908,-10.351704 3.50955,-16.9946018 6.80833,-19.07935 5.48213,-3.4645592 20.45571,-4.93762736 29.30227,-2.8826925 2.10085,0.4879993 8.28516,0.5729901 14.0625,0.1932607 10.63745,-0.6991708 19.37341,0.1114175 21.66089,2.0098606 1.85253,1.5374638 1.62105,6.5742152 -0.56667,12.3301622 -1.40149,3.68736 -1.87465,7.202966 -1.875,13.931481 -4.4e-4,8.440314 0.17324,9.255907 2.79497,13.125 2.54113,3.750142 2.79699,4.833314 2.8125,11.906382 0.0171,7.758566 -1.16389,11.815196 -4.37389,15.025196 -0.74428,0.744279 -1.20916,2.622582 -1.0503,4.243635 0.24555,2.50575 0.86897,3.118968 4.50375,4.43004 6.18457,2.230783 9.52962,6.059616 13.09107,14.984329 3.13682,7.860619 3.1371,7.862829 1.58676,12.227919 -2.22759,6.27193 -1.26796,10.01174 3.06962,11.9628 9.49763,4.27207 16.94005,11.06373 16.94005,15.45885 0,0.83485 1.41164,2.10721 3.13831,2.82866 1.72608,0.7212 4.03811,2.76718 5.13787,4.54662 2.70927,4.38369 4.16396,15.2767 3.39314,25.40858 -0.60198,7.91267 -0.50679,8.52442 2.18822,14.0625 7.04599,14.479 6.68915,12.20218 5.1599,32.92301 -0.91676,12.42191 -1.08598,13.16733 -3.40973,15.02022 -2.22061,1.77066 -2.39419,2.37947 -1.89063,6.63126 1.051,8.87402 -4.0249,15.77113 -10.05872,13.66773 -3.17749,-1.10767 -4.36311,-0.72829 -6.35204,2.03254 -1.29943,1.80375 -3.05837,1.83531 -9.66003,0.17331 -2.25608,-0.56799 -2.71947,-0.21915 -4.58124,3.44873 -1.13921,2.24435 -3.06832,5.27317 -4.28692,6.7307 -1.2186,1.45752 -2.21563,3.40975 -2.21563,4.33828 0,1.79938 -8.38167,12.35385 -16.16785,20.35908 -3.57559,3.67617 -4.58798,5.33229 -4.18998,6.85422 0.31573,1.20739 0.0334,2.19537 -0.70879,2.48018 -0.80046,0.30716 -1.27124,2.34429 -1.34084,5.80202 -0.0999,4.96417 -1.25977,15.82155 -2.5354,23.73386 -0.72817,4.51654 -3.90753,6.41258 -7.05555,4.20763 -2.40215,-1.68253 -7.8783,-2.04515 -8.78284,-0.58158 -0.31867,0.51562 -1.41325,0.9375 -2.43239,0.9375 -1.30323,0 -2.38951,1.25166 -3.66136,4.21875 -2.1282,4.96488 -3.79503,5.29281 -6.63443,1.30522 -2.06324,-2.89755 -2.06809,-2.99783 -0.88434,-18.30023 0.65465,-8.46269 1.66496,-16.76481 2.24515,-18.44916 1.04018,-3.0198 0.75824,-17.31332 -0.78025,-39.55583 -0.4634,-6.69969 -0.36507,-8.9737 0.34461,-7.96875 0.54618,0.77344 0.99951,3.38526 1.00741,5.80404 0.008,2.41879 0.43623,4.65854 0.95185,4.97721 0.51563,0.31868 0.94396,3.82404 0.95185,7.78971 0.007,3.96566 0.42331,7.8431 0.92315,8.61654 0.62304,0.9641 0.9133,-1.32038 0.92315,-7.26562 0.008,-5.14668 0.39545,-8.67188 0.95185,-8.67188 0.51563,0 0.9375,2.10938 0.9375,4.6875 0,2.57813 0.42188,4.6875 0.9375,4.6875 0.5198,0 0.9375,-2.48155 0.9375,-5.56967 0,-3.06332 0.42188,-5.83041 0.9375,-6.14908 0.99048,-0.61215 1.33832,2.80227 0.97897,9.60938 -0.11569,2.1914 0.18181,3.98437 0.66111,3.98437 1.24101,0 3.09267,-4.41623 2.49963,-5.96167 -0.27361,-0.713 0.15959,-1.54851 0.96266,-1.85668 0.80307,-0.30816 1.46013,-1.4341 1.46013,-2.50207 0,-1.06798 0.84375,-3.59566 1.875,-5.61708 1.03125,-2.02142 1.875,-4.31209 1.875,-5.09039 0,-0.77829 0.77412,-2.799 1.72027,-4.49047 1.76842,-3.1615 3.40342,-8.12772 3.10835,-9.44149 -0.0915,-0.40761 0.2317,-1.48503 0.71831,-2.39427 1.07026,-1.9998 0.23091,-3.55889 -2.1652,-4.0218 -4.01039,-0.77479 -4.10067,-3.33582 -0.49126,-13.93658 0.4389,-1.28906 0.91732,-3.60937 1.06315,-5.15625 0.28925,-3.06834 0.21316,-3.08621 -6.29737,-1.47862 -2.0625,0.50927 -5.01562,1.19444 -6.5625,1.52258 -6.43005,1.36402 -21.73095,6.40428 -23.90625,7.87492 -3.25175,2.1984 -12.0415,5.67487 -14.34807,5.67487 -1.0508,0 -2.57657,-0.59949 -3.39061,-1.33221 -2.10721,-1.89668 -10.84586,-6.16779 -12.61927,-6.16779 -0.82053,0 -2.11023,1.37109 -2.866,3.04687 -1.41302,3.13314 -5.32428,10.15019 -9.79794,17.57813 -5.424341,9.0064 -9.989744,20.58886 -12.258242,31.09922 -1.897333,8.79068 -4.594281,18.51463 -5.968957,21.5213 -0.794809,1.7384 -1.940054,5.05917 -2.544986,7.37948 -0.604933,2.32031 -1.449141,5.0625 -1.876018,6.09375 -0.426876,1.03125 -0.966103,3.35156 -1.19828,5.15625 -0.574282,4.46382 -1.251012,7.02886 -2.441081,9.25253 C 75.451371,320.59584 75,322.91863 75,324.72679 c 0,1.80815 -0.421875,3.54829 -0.9375,3.86696 -0.515625,0.31867 -0.9375,2.02502 -0.9375,3.79188 0,1.76685 -0.424422,5.01149 -0.94316,7.21029 -4.117994,17.45518 -6.897116,34.60914 -9.381077,57.90408 -1.787236,16.76095 -3.695643,29.36495 -6.124833,40.45121 -0.751102,3.42786 -1.798083,13.7638 -2.326625,22.96875 -1.006568,17.53015 -2.144843,28.86626 -3.610297,35.95504 -3.00926,14.55658 -3.169176,16.11814 -2.037458,19.89548 0.801315,2.67455 0.846044,4.46652 0.155424,6.22676 -0.533322,1.35934 -1.379904,4.58089 -1.881293,7.15901 -0.501389,2.57813 -1.394481,6.375 -1.984649,8.4375 -1.408988,4.92408 -3.636506,18.69196 -3.791977,23.4375 -0.06757,2.0625 0.182582,6.34171 0.555894,9.50935 0.727928,6.17667 -0.02453,12.5219 -1.48493,12.5219 -0.492261,0 -0.901479,-2.84766 -0.909375,-6.32813 -0.01005,-4.43177 -0.286692,-5.9067 -0.923144,-4.92187 -0.499834,0.77344 -0.915248,4.92706 -0.923144,9.23028 -0.01759,9.58528 1.555745,12.41912 7.941929,14.30473 2.327168,0.68713 4.231215,1.62981 4.231215,2.09484 0,0.85919 -8.658245,0.31471 -13.359375,-0.84012 -4.225616,-1.03802 -2.919509,0.95694 1.40625,2.14792 5.444227,1.49892 15.707525,2.48952 15.683751,1.51378 -0.01066,-0.43735 -1.060913,-5.85768 -2.333903,-12.04518 -1.272989,-6.1875 -2.318181,-13.35938 -2.322649,-15.9375 -0.01289,-7.43828 2.574228,-30.86539 4.658878,-42.1875 0.474689,-2.57813 1.354224,-9.75 1.954523,-15.9375 0.990471,-10.20916 2.436444,-19.82005 4.725118,-31.40625 1.169312,-5.91953 2.567549,-19.68133 3.6196,-35.625 0.493346,-7.47656 1.112966,-14.85938 1.376935,-16.40625 1.513751,-8.87069 4.247602,-26.78496 4.578224,-30 0.416096,-4.04621 2.783723,-22.55393 4.437452,-34.6875 0.56221,-4.125 1.796223,-11.71875 2.742252,-16.875 0.946027,-5.15625 2.219055,-12.32813 2.82895,-15.9375 0.609895,-3.60938 1.458841,-8.25 1.886547,-10.3125 0.427707,-2.0625 1.277454,-6.28125 1.888328,-9.375 0.610874,-3.09375 1.874548,-9 2.808165,-13.125 0.933616,-4.125 2.225631,-10.03125 2.871144,-13.125 0.645513,-3.09375 1.947357,-7.19022 2.892985,-9.10328 0.945629,-1.91305 1.719325,-4.38892 1.719325,-5.50193 0,-1.11301 0.923906,-4.71576 2.053116,-8.0061 1.507265,-4.39192 2.504259,-5.98244 3.75,-5.98244 2.183304,0 2.152434,1.91646 -0.09356,5.80579 -0.984731,1.70525 -2.473322,5.15453 -3.307969,7.66506 -1.42784,4.29476 -1.418981,4.64568 0.149794,5.93592 1.449516,1.19213 1.463138,1.30779 0.104316,0.88521 -2.39251,-0.74405 -3.960924,5.97819 -1.718213,7.36427 0.515625,0.31867 0.9375,1.39826 0.9375,2.39908 0,2.16624 2.629913,2.44884 3.42826,0.36838 0.321459,-0.83772 -0.186422,-2.01418 -1.201294,-2.78269 -1.690969,-1.28047 -1.679653,-1.33253 0.295828,-1.36121 2.597705,-0.0377 2.848815,-0.48153 3.637865,-6.42963 0.59,-4.44764 0.49745,-4.82802 -1.03196,-4.24113 -1.411914,0.5418 -1.583252,0.28277 -1.073439,-1.6228 0.333649,-1.24713 0.612399,-3.21672 0.619439,-4.37688 0.008,-1.4015 0.5791,-2.10937 1.7003,-2.10937 3.86418,0 5.44966,-5.01088 1.88078,-5.94416 -1.86185,-0.48688 -1.92464,-0.69711 -0.66269,-2.21872 2.11741,-2.55308 3.4879,-5.95385 4.14252,-10.2793 0.32554,-2.15102 1.1932,-4.14168 1.92814,-4.42371 0.73496,-0.28202 1.33627,-1.36975 1.33627,-2.41719 0,-3.35298 1.68786,-2.03662 2.34031,1.82521 0.61669,3.65013 0.22791,7.02765 -1.45915,12.67662 -1.26135,4.22347 -4.69037,14.80532 -5.31642,16.40625 -0.30245,0.77344 -0.51777,1.61815 -0.47849,1.87715 0.0805,0.53099 -1.13906,11.00961 -2.50941,21.56035 -0.50229,3.86719 -1.95793,10.82812 -3.23479,15.46875 -1.276847,4.64062 -2.788022,12.02344 -3.358153,16.40625 -0.570141,4.38281 -1.422825,10.07812 -1.894856,12.65625 -0.472041,2.57812 -1.346268,9.53906 -1.942738,15.46875 -0.59647,5.92969 -1.434313,12.25781 -1.861874,14.0625 -0.893119,3.76976 -2.282158,11.10491 -3.639406,19.21875 -0.517509,3.09375 -1.399861,13.00781 -1.960784,22.03125 -0.960752,15.4554 -1.427342,21.29533 -3.763882,47.10937 -1.710707,18.89986 -4.664444,41.3454 -7.803217,59.29688 -4.353554,24.89914 -4.840765,30.79351 -4.722049,57.12814 0.110722,24.56159 0.168487,25.29738 2.109375,26.86902 2.795592,2.26373 2.484051,3.65909 -0.816966,3.65909 -3.290124,0 -3.545179,0.92133 -0.914196,3.30234 2.562379,2.31892 10.350973,2.46537 12.810876,0.24088 2.969728,-2.68553 10.652937,-4.0159 15.428267,-2.67144 2.244712,0.63198 6.507083,1.2221 9.471933,1.31136 4.47229,0.13465 5.39062,-0.10403 5.39062,-1.40105 0,-0.85984 -0.33032,-1.70396 -0.73404,-1.87584 -0.93113,-0.39641 -4.89096,-7.15275 -4.89096,-8.34506 0,-0.49176 -0.81439,-2.68249 -1.80976,-4.86828 -2.00562,-4.40428 -4.97592,-13.76699 -6.544265,-20.62824 -1.160006,-5.07484 -1.2246,-34.6265 -0.08348,-38.18967 0.814519,-2.54334 1.253363,4.2624 1.027669,15.9375 -0.150066,7.7629 2.844371,30.93834 4.542451,35.15625 1.13911,2.82948 4.48806,10.25126 6.79506,15.05888 2.86242,5.96509 7.74382,10.11764 10.94809,9.31342 3.15498,-0.79185 4.59838,-2.0216 6.35111,-5.411 1.18724,-2.29586 1.36641,-6.9978 1.11006,-29.13078 -0.46258,-39.93915 -0.17774,-58.76178 1.11655,-73.78194 1.14402,-13.27624 0.89054,-44.00988 -0.59112,-71.67358 -0.3314,-6.1875 -0.29724,-10.96358 0.0759,-10.61352 0.65812,0.61742 1.73293,9.9637 2.97247,25.84789 0.33196,4.25391 0.87069,7.73438 1.19717,7.73438 0.32649,0 0.58343,-29.42578 0.57098,-65.39063 -0.021,-60.73504 0.41456,-76.45314 2.88382,-104.0625 0.28822,-3.22265 0.9043,-5.85937 1.36905,-5.85937 1.82382,0 2.04293,5.79766 1.02339,27.07792 -0.58343,12.17746 -1.34165,29.94552 -1.68494,39.48458 -0.58208,16.17448 -0.518,17.25574 0.95047,16.03828 0.86605,-0.71801 1.85979,-1.02033 2.20829,-0.67181 0.94789,0.94789 0.93173,23.10819 -0.0192,26.35228 -0.75418,2.57283 -0.90031,29.74133 -0.27332,50.81556 0.19457,6.54033 -0.048,8.74496 -1.00237,9.1112 -1.33169,0.51101 -1.68975,4.89125 -0.62636,7.6624 0.58711,1.52998 0.68366,1.51861 1.34035,-0.1577 0.43511,-1.11069 0.73305,0.60953 0.77356,4.46633 0.0363,3.45004 -0.35712,6.53424 -0.87413,6.85378 -0.62378,0.38551 -0.60784,1.2017 0.0473,2.42598 0.66025,1.2337 0.80833,9.99005 0.44691,26.42748 -0.8624,39.22267 -1.47627,60.55417 -1.98892,69.11372 -0.26249,4.38281 -0.0104,11.97656 0.56017,16.875 0.57058,4.89844 1.33123,11.4375 1.69033,14.53125 l 0.65291,5.625 3.33557,0.28024 c 2.72658,0.22907 4.22473,-0.42775 8.20581,-3.59753 2.67864,-2.13276 5.11459,-4.85125 5.41322,-6.04109 0.29862,-1.18984 0.65777,-7.58658 0.7981,-14.21497 0.14031,-6.62841 0.73218,-17.32509 1.31526,-23.7704 1.12671,-12.45463 2.51732,-31.26824 4.1231,-55.78125 1.22829,-18.75068 1.40568,-94.24403 0.30563,-130.07813 -0.52485,-17.09694 -0.49962,-26.95312 0.069,-26.95312 1.55573,0 3.15298,12.70407 3.15522,25.09552 0.005,24.52677 1.22299,55.46236 2.1618,54.88215 0.60701,-0.37515 0.69697,-13.93047 0.25952,-39.10406 -0.67048,-38.58349 -0.0836,-46.12816 2.1736,-27.94637 1.39639,11.24774 1.41751,77.21562 0.0262,81.77601 -0.58007,1.90131 -0.95422,11.24043 -0.8956,22.35522 0.11149,21.13973 -1.39297,55.62747 -2.80702,64.34778 -0.50168,3.09375 -1.33085,15.93202 -1.84261,28.52948 -0.86106,21.19582 -0.39224,34.43424 1.52948,43.18927 0.48144,2.19337 0.64643,2.07306 2.5713,-1.875 1.13127,-2.32031 2.96172,-5.90625 4.06766,-7.96875 5.50542,-10.2672 8.58553,-24.59411 11.48839,-53.4375 0.46704,-4.64063 1.08585,-10.33594 1.37513,-12.65625 0.28928,-2.32031 1.16088,-10.70002 1.9369,-18.62157 0.77601,-7.92155 1.69772,-14.86685 2.04824,-15.434 0.35051,-0.56714 0.80499,-25.30462 1.00994,-54.97218 0.20496,-29.66755 0.44094,-57.94881 0.52443,-62.84725 0.0834,-4.89844 -0.20583,-18.08203 -0.6429,-29.29688 -0.52185,-13.39017 -0.47546,-20.39062 0.13511,-20.39062 1.58634,0 2.21865,14.33927 1.90164,43.125 -0.30364,27.5719 -0.20245,38.9904 0.7311,82.5 0.48648,22.6727 0.10645,29.76919 -3.01226,56.25 -1.55716,13.2217 -2.34618,21.38908 -4.03031,41.71875 -1.24916,15.07903 -1.61231,17.3411 -3.91311,24.375 -3.34293,10.21983 -3.67375,11.3708 -3.67375,12.7811 0,1.69954 -3.33883,8.79328 -5.74568,12.20737 -2.20479,3.12745 -2.1919,3.63231 0.22393,8.77175 1.3138,2.795 2.57089,4.20853 3.74276,4.20853 0.97049,0 2.89221,1.26562 4.27047,2.8125 3.06037,3.43474 5.83993,3.57545 8.78125,0.44454 2.68759,-2.8608 7.02726,-5.13204 9.80579,-5.13204 1.12226,0 4.53792,-1.01295 7.59035,-2.251 8.27718,-3.35719 9.01464,-5.00513 8.43216,-18.84275 -0.26046,-6.1875 -0.87689,-28.33594 -1.36985,-49.21875 -0.49296,-20.88281 -1.14383,-42.39844 -1.4464,-47.8125 -0.30257,-5.41406 -0.74577,-22.71094 -0.98491,-38.4375 -0.23914,-15.72656 -0.70704,-35.55469 -1.03978,-44.0625 -0.37861,-9.68089 -0.2447,-16.69648 0.35792,-18.75 l 0.96288,-3.28125 0.0846,4.45312 c 0.0493,2.59585 0.51995,4.45313 1.12849,4.45313 1.29498,0 0.17376,-8.61874 -1.23474,-9.49145 -0.59114,-0.36627 -0.36579,-1.46835 0.60238,-2.94597 1.34783,-2.05705 1.45732,-4.15284 0.85098,-16.28981 -0.92185,-18.45282 -0.92735,-86.31661 -0.008,-89.76775 1.30401,-4.89123 2.64585,-1.19458 3.58853,9.88618 1.19337,14.02761 3.43633,33.73028 4.57311,40.1713 2.66311,15.08932 4.62483,47.13383 7.46102,121.875 0.4598,12.11719 1.28261,27.30469 1.82845,33.75 0.97889,11.5587 2.09339,27.80572 3.85858,56.25 1.61466,26.01854 1.80524,27.37802 4.30436,30.70411 3.08337,4.10367 7.04145,5.98674 12.83709,6.10729 9.3065,0.19357 12.78459,-4.0653 12.79005,-15.66121 0.004,-8.43642 -1.00603,-14.89915 -4.33099,-27.71269 -1.27108,-4.89844 -3.18749,-12.28125 -4.25869,-16.40625 -1.0712,-4.125 -2.31813,-9.29297 -2.77097,-11.48438 -0.45284,-2.1914 -1.26459,-5.98828 -1.80389,-8.4375 -1.58309,-7.18957 -2.73196,-13.41459 -3.67673,-19.92187 -0.48661,-3.35156 -1.32458,-8.41406 -1.86217,-11.25 -1.46624,-7.73485 -4.15117,-26.99962 -5.35705,-38.4375 -0.6222,-5.90163 0.4416,-5.78066 1.73435,0.19721 0.47832,2.21185 1.29885,5.91998 1.82339,8.24029 0.52455,2.32031 1.29816,7.59375 1.71916,11.71875 2.15014,21.06772 3.00996,27.59039 4.20183,31.875 0.71716,2.57812 1.79244,7.21875 2.38952,10.3125 0.59709,3.09375 1.4603,7.10156 1.91827,8.90625 0.45796,1.80469 2.20482,8.97656 3.88192,15.9375 1.67709,6.96094 3.59723,13.32891 4.26697,14.15104 2.03231,2.49472 3.77481,10.98724 4.88692,23.81771 1.00179,11.55776 0.94466,12.62221 -1.10563,20.60043 -1.79721,6.9934 -2.58463,8.65015 -4.6667,9.81878 -3.01615,1.69293 -4.11997,0.93916 -2.47707,-1.69153 1.37091,-2.19519 0.4004,-3.85577 -1.27456,-2.1808 -1.81207,1.81206 -9.02446,1.34202 -12.00821,-0.7826 -3.67754,-2.61863 -4.2679,-0.96098 -1.67256,4.69631 1.8843,4.10739 2.50721,4.69768 4.97216,4.71186 1.76759,0.0101 3.64093,0.88378 5.02576,2.34375 2.20645,2.32615 4.82348,3.11036 4.82348,1.44538 0,-0.48519 -0.42188,-1.14291 -0.9375,-1.46158 -1.99924,-1.2356 -0.78097,-2.34382 2.57812,-2.3452 3.80353,-0.002 9.73979,-2.5586 10.33479,-4.45168 0.2108,-0.67066 -0.43665,-1.17187 -1.51383,-1.17187 -1.86779,0 -1.86881,-0.0381 -0.13351,-4.97524 2.05682,-5.85204 2.35512,-13.8217 0.95421,-25.49351 -1.52966,-12.74451 -2.10947,-25.67554 -1.05092,-23.4375 0.48777,1.03125 0.9165,4.21641 0.95274,7.07812 0.0363,2.86172 0.44888,5.60391 0.91697,6.09375 1.89233,1.98027 3.54983,29.32117 2.09662,34.58428 -0.55268,2.00166 -0.57558,3.53417 -0.0576,3.85431 0.47315,0.2923 0.8601,0.0598 0.8601,-0.51671 0,-0.57649 0.40345,-0.79882 0.89656,-0.49405 0.49311,0.30475 0.67528,1.13072 0.40483,1.83549 -0.73834,1.92409 1.12232,2.6004 2.5202,0.91605 1.89543,-2.28385 2.89371,-9.86902 3.37439,-25.63933 0.56684,-18.59715 2.14498,-16.97017 2.16467,2.23165 0.018,17.54164 -1.2857,24.66285 -4.89024,26.71242 -4.27959,2.4334 -3.28106,3.79979 2.32647,3.18351 2.70703,-0.2975 5.39302,-1.0159 5.96886,-1.59645 2.04371,-2.0604 5.90758,-18.99162 5.95133,-26.07833 0.0181,-2.93442 0.45481,-5.59603 0.97043,-5.91471 1.31242,-0.81112 1.24107,17.60268 -0.0733,18.91704 -0.55594,0.55594 -0.86656,2.22235 -0.69027,3.70313 l 0.32052,2.69233 1.72454,-3.18745 c 2.79576,-5.16738 2.19371,-20.93632 -1.66796,-43.68755 -1.7504,-10.3125 -3.812,-21.07031 -4.58134,-23.90625 -0.76935,-2.83594 -1.67795,-6.87251 -2.01911,-8.97016 -0.45839,-2.81841 -1.30608,-4.219 -3.24765,-5.36592 -1.44504,-0.8536 -2.89748,-1.28188 -3.22764,-0.95171 -0.895,0.89499 -0.72498,9.70921 0.25307,13.11944 0.46935,1.63653 1.08974,9.64938 1.37865,17.80631 0.47666,13.45821 0.40435,14.48373 -0.78132,11.08079 -0.71863,-2.0625 -1.33902,-6.30923 -1.37865,-9.43719 -0.0397,-3.12796 -0.45917,-7.97953 -0.93233,-10.78125 -0.47314,-2.80173 -1.10807,-9.41828 -1.41095,-14.70344 -0.44562,-7.77621 -0.30583,-9.60937 0.73278,-9.60937 0.70589,0 2.37603,-1.58203 3.71141,-3.51563 2.27472,-3.29375 2.37118,-3.8706 1.52835,-9.14062 -0.49478,-3.09375 -1.29475,-10.26563 -1.77772,-15.9375 -0.91878,-10.78992 -1.25209,-12.28251 -8.16471,-36.5625 -5.48812,-19.27651 -6.42029,-22.97672 -7.79393,-30.9375 -0.62279,-3.60938 -1.4945,-8.25 -1.93712,-10.3125 -0.44262,-2.0625 -1.69176,-7.96875 -2.77586,-13.125 -3.87861,-18.44751 -5.85248,-27.2165 -6.5419,-29.0625 -1.35711,-3.63379 -2.68958,-8.52536 -4.59677,-16.875 -6.06369,-26.54661 -7.93049,-33.70968 -10.99473,-42.1875 -3.94524,-10.91533 -4.96684,-15.90775 -3.12988,-15.29543 1.33734,0.44578 1.72093,1.07711 4.46738,7.35273 5.07762,11.60232 14.97199,50.15619 23.211,90.4427 1.37086,6.70312 2.86888,13.875 3.32893,15.9375 0.46005,2.0625 1.63306,7.96875 2.60671,13.125 1.78153,9.43469 2.44881,11.8217 8.15018,29.15497 1.71276,5.20711 3.53061,11.74618 4.03967,14.53125 0.50906,2.78508 1.36808,7.17315 1.90894,9.75128 0.54087,2.57812 1.39746,9.32812 1.90355,15 0.50608,5.67187 1.35336,13.26562 1.88283,16.875 0.52947,3.60937 1.15723,8.91366 1.39504,11.78728 0.23779,2.87364 1.96644,11.1002 3.84143,18.28125 1.87499,7.18106 3.72374,15.37678 4.10831,18.21272 0.38459,2.83594 1.79593,9.375 3.13632,14.53125 6.9982,26.92082 7.27552,33.57048 1.68993,40.521 -5.74237,7.14562 -19.3725,11.46345 -27.60747,8.74567 -3.03117,-1.00038 -3.72094,-0.9034 -6.21724,0.87412 -3.30757,2.35521 -12.70953,4.31375 -16.33725,3.40325 -1.3999,-0.35136 -4.40005,-2.34851 -6.667,-4.4381 -4.18878,-3.8611 -6.07993,-4.08592 -6.07993,-0.7228 0,3.62652 -2.88391,7.53503 -6.86344,9.30188 -3.43891,1.52683 -4.18876,2.44322 -6.13433,7.49679 -1.59631,4.14633 -3.03911,6.25891 -5.15625,7.54988 -1.61685,0.9859 -3.25614,1.79413 -3.64286,1.79605 -1.58154,0.008 -0.55039,-2.69341 1.55464,-4.07268 2.57576,-1.68771 5.25223,-6.52007 5.22139,-9.42722 -0.0198,-1.86953 -0.11022,-1.85108 -1.85415,0.37841 -1.00832,1.28906 -1.84268,2.82739 -1.85415,3.41851 -0.0544,2.80564 -10.77856,9.70649 -15.08419,9.70649 -0.94014,0 -2.2766,1.16016 -2.96991,2.57812 -1.19157,2.43701 -1.56643,2.56334 -6.84804,2.3079 -8.73242,-0.42234 -9.78773,0.0678 -9.16668,4.25755 0.28637,1.93198 1.38509,5.29761 2.44157,7.47919 1.90292,3.92937 1.90408,3.99803 0.12303,7.33423 -0.98884,1.85224 -2.21976,3.70302 -2.73538,4.11282 -1.51942,1.20756 -15.73402,1.78164 -18.04688,0.72884 z M 160.3125,616.875 c 0,-0.51563 -0.39698,-0.9375 -0.88217,-0.9375 -0.48519,0 -1.1429,0.42187 -1.46158,0.9375 -0.31868,0.51562 0.0783,0.9375 0.88217,0.9375 0.80387,0 1.46158,-0.42188 1.46158,-0.9375 z m -48.04687,-4.67935 c 1.16015,-0.005 2.10974,-0.53549 2.11019,-1.18003 5.9e-4,-0.83939 -2.19378,-1.18411 -7.73437,-1.21504 -4.25437,-0.0237 -8.684419,-0.38936 -9.844575,-0.81247 -1.752394,-0.6391 -2.109375,-0.44353 -2.109375,1.15565 0,2.25174 3.31245,2.9955 10.78125,2.42076 2.57813,-0.1984 5.63672,-0.36439 6.79688,-0.36887 z m 30.23437,0.045 c 0,-0.48639 -0.89943,-1.51432 -1.99872,-2.2843 -1.7775,-1.24501 -2.24443,-1.23896 -4.21875,0.0547 -3.3125,2.17044 -2.70688,3.11399 1.99872,3.11399 2.32031,0 4.21875,-0.39795 4.21875,-0.88434 z m -76.875,-2.46388 c 0,-0.29463 -0.602958,-1.13866 -1.339907,-1.87561 -1.528002,-1.52801 -3.758275,-8.96432 -4.759648,-15.86992 -1.641153,-11.3176 -2.246352,-11.95499 -1.784259,-1.87916 0.496815,10.83294 1.870245,18.28651 3.582649,19.44293 1.210111,0.81722 4.301165,0.94785 4.301165,0.18177 z M 54.84375,605.625 c -0.318674,-0.51563 -1.820134,-0.9375 -3.336578,-0.9375 -1.516445,0 -2.757172,0.42187 -2.757172,0.9375 0,0.51562 1.501461,0.9375 3.336578,0.9375 1.985657,0 3.101987,-0.37958 2.757172,-0.9375 z m 94.6875,0 c 0.31868,-0.51563 1.79524,-0.9375 3.28125,-0.9375 1.48601,0 2.96257,-0.42188 3.28125,-0.9375 0.32034,-0.51833 -0.35871,-0.9375 -1.51874,-0.9375 -2.7015,0 -8.32501,2.02704 -8.32501,3.00083 0,1.07473 2.59261,0.92592 3.28125,-0.18833 z m 51.94038,-0.7677 c 0.53308,-0.99608 3.2696,-2.36051 6.5804,-3.281 5.56686,-1.54772 12.48103,-6.35574 11.11061,-7.72617 -0.37391,-0.3739 -1.21736,-0.24278 -1.87436,0.29138 -3.02241,2.45731 -8.16374,4.69879 -12.14822,5.2963 -2.39896,0.35975 -4.86977,1.26622 -5.4907,2.01439 -0.62091,0.74816 -1.65844,1.3603 -2.30561,1.3603 -1.50116,0 -3.46166,2.31958 -2.64812,3.13313 1.31124,1.31124 5.88493,0.57663 6.776,-1.08833 z M 43.59375,603.75 c -0.318674,-0.51563 -2.055969,-0.9375 -3.860657,-0.9375 -1.948771,0 -3.045959,0.38071 -2.701843,0.9375 0.318674,0.51562 2.055969,0.9375 3.860657,0.9375 1.948771,0 3.045959,-0.38071 2.701843,-0.9375 z m 132.27037,-2.57338 c -1.02412,-1.02413 -1.72638,0.60455 -0.9911,2.29857 0.6972,1.60629 0.74774,1.60482 1.13619,-0.0329 0.2236,-0.9427 0.15831,-1.96223 -0.14509,-2.26562 z M 35.625,601.875 c 0,-0.51563 -0.868648,-0.9375 -1.930328,-0.9375 -1.061681,0 -1.669596,0.42187 -1.350922,0.9375 0.318674,0.51562 1.187321,0.9375 1.930328,0.9375 0.743008,0 1.350922,-0.42188 1.350922,-0.9375 z m 30.564057,-1.17188 c -0.60866,-3.13783 -2.321718,-14.58278 -2.970485,-19.84583 -0.886735,-7.19354 -1.951099,-3.33547 -1.195602,4.33376 1.008286,10.23537 1.875657,15.14529 2.905933,16.44957 1.354593,1.71486 1.721672,1.44178 1.260154,-0.9375 z m 107.864203,-3.09191 c 0.75289,-1.96201 -2.52261,-4.37687 -4.12873,-3.0439 -1.68395,1.39756 -1.44766,3.34883 0.4661,3.84894 2.83062,0.73973 3.09188,0.6823 3.66263,-0.80504 z M 31.337812,595.76112 c 2.467121,-1.8665 1.088002,-2.93525 -1.795967,-1.39179 -1.846169,0.98804 -3.085846,1.02079 -5.96673,0.15767 -4.26839,-1.27885 -5.762615,-1.36853 -5.762615,-0.34588 0,0.99334 5.397967,2.7175 8.90625,2.84474 1.546875,0.0561 3.625453,-0.51303 4.619062,-1.26474 z m -9.041904,-6.86628 c 0.268665,-0.80684 -0.182111,-1.14468 -1.250876,-0.9375 -0.919,0.17815 -1.859922,0.89155 -2.09094,1.58532 -0.268665,0.80684 0.182111,1.14468 1.250876,0.9375 0.918999,-0.17815 1.859922,-0.89155 2.09094,-1.58532 z M 33.75,588.33658 c 0,-0.74301 -0.421875,-1.61166 -0.9375,-1.93033 -0.515625,-0.31867 -0.9375,0.28924 -0.9375,1.35092 0,1.06168 0.421875,1.93033 0.9375,1.93033 0.515625,0 0.9375,-0.60791 0.9375,-1.35092 z M 15,587.99168 c 0,-1.67255 -2.471708,-3.90784 -4.584157,-4.14569 -3.2351845,-0.36424 -3.4787776,1.72857 -0.39573,3.39989 C 12.954439,588.83658 15,589.14292 15,587.99168 Z m 13.125,-11.06232 c 0,-0.76861 -0.675415,-2.70358 -1.500923,-4.29993 -1.064836,-2.05918 -1.716325,-2.55394 -2.242299,-1.7029 -0.704178,1.13938 0.08212,5.37946 1.390051,7.49573 0.794003,1.28472 2.353171,0.29556 2.353171,-1.4929 z m 30,-3.70344 c 0,-2.61066 -0.364864,-4.04858 -0.9375,-3.69467 -1.61298,0.99688 -1.066167,7.96875 0.625,7.96875 0.171875,0 0.3125,-1.92334 0.3125,-4.27408 z M 32.17669,561.79687 c 0.282958,-7.08984 1.156172,-17.95312 1.940474,-24.14062 0.784304,-6.1875 1.444417,-11.77734 1.466921,-12.42188 0.0225,-0.64453 0.884665,-1.17187 1.915915,-1.17187 2.353428,0 2.342264,-0.38141 -0.108173,-3.69581 -1.914444,-2.58942 -1.946564,-3.08358 -0.926839,-14.25891 1.165035,-12.7678 2.746299,-26.91057 3.495543,-31.26403 0.266222,-1.54688 0.887731,-6.60938 1.381129,-11.25 0.4934,-4.64063 1.32118,-10.96875 1.839511,-14.0625 2.373829,-14.16859 3.005826,-19.09226 3.038496,-23.67188 0.01931,-2.70703 0.333261,-4.92187 0.697668,-4.92187 0.737828,0 3.071583,-12.17108 4.67381,-24.375 0.575411,-4.38281 1.406841,-9.44531 1.847623,-11.25 0.440784,-1.80469 1.079691,-6.23438 1.419795,-9.84375 0.340105,-3.60938 1.03396,-8.19819 1.541901,-10.19738 0.603221,-2.37419 0.604828,-3.95358 0.0046,-4.55377 -1.259056,-1.25906 -3.161155,2.42484 -3.98599,7.7199 -0.361445,2.32031 -1.295936,6.75 -2.076645,9.84375 -0.780709,3.09375 -1.947939,8.68359 -2.593845,12.42187 -0.645904,3.73829 -1.528577,6.79688 -1.961495,6.79688 -1.073224,0 -0.99976,-8.06914 0.09187,-10.09085 0.709363,-1.31374 3.820024,-22.51762 3.810908,-25.97713 -0.0013,-0.50144 -0.568837,-0.0796 -1.261147,0.9375 -0.692311,1.01708 -1.771536,5.22423 -2.398279,9.34923 -0.626743,4.125 -1.348488,8.55469 -1.603877,9.84375 -0.25539,1.28906 -0.853511,5.92969 -1.329158,10.3125 -0.475647,4.38281 -1.28034,10.07812 -1.788207,12.65625 -0.507865,2.57812 -1.354775,7.00781 -1.882022,9.84375 -0.527248,2.83594 -1.414359,7.05469 -1.971358,9.375 -0.557,2.32031 -1.38948,6.53906 -1.849957,9.375 -0.460476,2.83594 -1.289357,7.6875 -1.841957,10.78125 -1.847288,10.3421 -2.237338,15.79473 -1.078638,15.07861 0.58562,-0.3619 1.064734,-2.32062 1.064734,-4.35269 0,-2.05492 0.456235,-3.69467 1.027981,-3.69467 0.694519,0 0.825115,1.59659 0.402598,4.92187 -0.343961,2.70704 -0.830176,10.40625 -1.080477,17.10938 -0.250301,6.70312 -0.853345,12.58828 -1.340097,13.07813 -0.557211,0.56074 -0.885005,0.30031 -0.885005,-0.70313 0,-2.01124 -1.488037,-2.07939 -2.24649,-0.1029 -0.72772,1.89641 0.06777,3.19665 1.955733,3.19665 1.181117,0 1.358254,0.69776 0.892489,3.51562 -0.319603,1.9336 -0.585739,5.3086 -0.591414,7.5 -0.01727,6.66667 -1.877934,4.46663 -1.982211,-2.34375 -0.08226,-5.37274 -0.20895,-5.83274 -0.839133,-3.04687 -2.679963,11.84742 -3.4684,23.34558 -1.720666,25.09331 1.235431,1.23543 -0.115946,16.96121 -2.689761,31.30036 -1.41942,7.90783 -1.09664,16.73133 0.612061,16.73133 1.008567,0 1.834342,-4.55202 2.952653,-16.27628 0.498643,-5.22774 1.317788,-12.24716 1.820323,-15.59872 0.502534,-3.35156 1.167187,-8.625 1.477008,-11.71875 0.817439,-8.16265 2.430784,-8.99129 1.812968,-0.93117 -0.276396,3.60589 -0.747629,9.72023 -1.047185,13.58742 -0.299555,3.86719 -0.947193,8.09629 -1.439193,9.398 -1.073971,2.84146 -1.85404,20.57834 -1.12254,25.52387 1.018206,6.88393 1.950051,3.32842 2.457048,-9.375 z M 238.125,573.75 c 0,-0.51563 -0.42188,-0.9375 -0.9375,-0.9375 -0.51563,0 -0.9375,0.42187 -0.9375,0.9375 0,0.51562 0.42187,0.9375 0.9375,0.9375 0.51562,0 0.9375,-0.42188 0.9375,-0.9375 z m -8.96832,-27.65625 c -0.33818,-13.94955 -0.9562,-23.81702 -1.52666,-24.375 -0.65281,-0.63854 -0.7018,4.59323 -0.15361,16.40625 0.44266,9.53906 0.70353,21.14062 0.57972,25.78125 -0.15799,5.92166 0.0572,8.01819 0.72182,7.03125 0.61335,-0.91087 0.74677,-9.66269 0.37873,-24.84375 z M 61.875,569.0625 c 0,-1.03125 -0.421875,-1.875 -0.9375,-1.875 -0.515625,0 -0.9375,0.84375 -0.9375,1.875 0,1.03125 0.421875,1.875 0.9375,1.875 0.515625,0 0.9375,-0.84375 0.9375,-1.875 z m 160.33922,-25.66078 c -1.17783,-1.17783 -1.24594,3.46021 -0.2611,17.78057 l 0.70313,10.22396 0.26109,-13.52016 c 0.16163,-8.36896 -0.10626,-13.88751 -0.70312,-14.48437 z m 19.55834,20.0099 c -1.16572,-2.57933 -2.45289,-4.35629 -2.86041,-3.94877 -0.96213,0.96212 0.9988,7.68938 2.8967,9.93755 2.44307,2.89396 2.42221,-0.54894 -0.0363,-5.98878 z M 58.044419,558.98437 c -0.05183,-5.27643 -0.334355,-7.36693 -0.791878,-5.85937 -1.120641,3.69255 -1.189586,14.0625 -0.0935,14.0625 0.595484,0 0.935051,-3.14614 0.885375,-8.20313 z M 22.539583,550.3125 c 0.45674,-4.38281 1.086858,-10.5 1.400262,-13.59375 0.313404,-3.09375 0.8285,-6.25781 1.144659,-7.03125 0.911121,-2.22893 0.976526,-7.5 0.09306,-7.5 -0.441414,0 -0.802569,0.92813 -0.802569,2.0625 0,1.55793 -0.264547,1.79796 -1.081359,0.98114 -0.813615,-0.81362 -0.820397,-3.47144 -0.02739,-10.73437 0.579684,-5.30916 1.498032,-14.29364 2.040772,-19.96552 2.226123,-23.26395 3.038353,-28.73716 4.338675,-29.23614 0.710487,-0.27265 1.291797,-1.10829 1.291797,-1.85699 0,-0.7487 -0.373912,-1.13019 -0.830916,-0.84774 -0.457003,0.28244 -1.075997,-0.42366 -1.375544,-1.56913 -0.870748,-3.32975 -2.551408,-0.6921 -2.900132,4.55151 -0.823297,12.37959 -1.865284,19.76947 -3.043494,21.58478 -0.721171,1.11113 -1.237104,4.03008 -1.159945,6.5625 0.07643,2.50867 -0.320962,9.20183 -0.883104,14.87371 -2.403707,24.25282 -2.978054,29.31156 -3.831834,33.75 -2.80917,14.60369 -2.985135,18.28125 -0.874729,18.28125 0.460459,0 0.843658,-0.94922 0.851554,-2.10938 0.0079,-1.16015 0.42331,-2.74218 0.923144,-3.51562 0.6468,-1.00085 0.912927,0.10273 0.923144,3.82812 0.0079,2.87891 0.330762,5.55207 0.717481,5.94037 0.904402,0.90808 2.039263,-4.40725 3.086458,-14.45599 z M 61.875,560.56967 c 0,-2.29815 -0.371315,-3.57584 -0.9375,-3.22592 -0.515625,0.31867 -0.9375,2.03107 -0.9375,3.80533 0,1.77426 0.421875,3.22592 0.9375,3.22592 0.515625,0 0.9375,-1.7124 0.9375,-3.80533 z m -54.0892889,-4.63217 0.5186377,-5.15625 -1.2676261,3.75 c -1.4653192,4.33483 -1.8179647,8.78442 -0.590686,7.45312 0.4515702,-0.48984 1.0544237,-3.21093 1.3396744,-6.04687 z M 63.684108,545.06177 c 0.03624,-3.66133 0.46228,-7.88008 0.946754,-9.375 0.484474,-1.49491 1.101497,-4.61646 1.371162,-6.93677 0.269666,-2.32031 0.911541,-7.59375 1.426389,-11.71875 2.055931,-16.47228 2.80578,-22.74371 3.362789,-28.125 0.320228,-3.09375 1.026598,-7.66302 1.569708,-10.15393 0.653246,-2.99603 0.672586,-4.84382 0.05714,-5.45927 -1.526684,-1.52668 -3.365511,7.78801 -4.932956,24.9882 -0.469887,5.15625 -1.242484,11.69531 -1.716882,14.53125 -1.335974,7.98643 -2.839578,18.67322 -3.462478,24.60937 -0.31111,2.96485 -1.019157,5.39063 -1.573437,5.39063 -1.080025,0 -0.471654,-12.08977 1.179401,-23.4375 0.487641,-3.35156 1.284967,-9.67969 1.771836,-14.0625 0.486869,-4.38281 1.353491,-11.13281 1.925828,-15 1.023592,-6.91626 1.584302,-10.88344 3.643849,-25.78125 0.570261,-4.125 1.288882,-10.37079 1.596937,-13.87954 0.605519,-6.89686 2.320604,-8.17831 3.281995,-2.45219 0.505013,3.0079 0.574764,3.06141 1.124937,0.86298 0.791571,-3.16302 1.79001,-15.56557 2.037728,-25.3125 0.111389,-4.38281 0.51884,-10.92188 0.905447,-14.53125 0.507302,-4.73618 0.424699,-6.17115 -0.296812,-5.15625 -0.549854,0.77344 -1.006194,2.80507 -1.01409,4.51476 -0.0079,1.70968 -0.419721,3.86594 -0.915167,4.79169 -0.495446,0.92574 -1.02279,7.53741 -1.171875,14.69258 -0.240001,11.51855 -0.459077,13.04545 -1.911689,13.32393 -1.353993,0.25958 -1.640625,-0.37995 -1.640625,-3.66047 0,-6.77673 -1.284248,-3.09206 -2.085455,5.98344 -1.010756,11.44911 -2.37427,23.9051 -3.562215,32.54157 -0.531931,3.86719 -1.314542,10.19531 -1.739134,14.0625 -1.413795,12.87683 -3.972847,30.43248 -4.861046,33.34781 -0.482431,1.58349 -0.877148,7.19182 -0.877148,12.46297 0,8.60748 0.167152,9.55585 1.640625,9.30844 1.345882,-0.22598 1.663147,0.48244 1.765993,3.94328 0.172245,5.79616 0.350606,6.38362 1.280882,4.21875 0.443143,-1.03125 0.835367,-4.87064 0.871608,-8.53198 z m -49.078613,-2.48365 c 0.394042,-2.31022 0.243032,-3.51562 -0.440427,-3.51562 -0.572037,0 -1.040068,1.02979 -1.040068,2.28842 0,1.25863 -0.421875,2.54916 -0.9375,2.86783 -1.086681,0.67161 -1.27758,8.25005 -0.234375,9.30437 0.386719,0.39084 1.006786,-1.12088 1.377927,-3.35937 0.371141,-2.2385 0.944641,-5.65203 1.274443,-7.58563 z m -3.421387,-3.75 c -0.05522,-2.5533 -0.196412,-2.74314 -0.871608,-1.17187 -1.1129756,2.59003 -1.1129756,4.21875 0,4.21875 0.515625,0 0.907849,-1.37109 0.871608,-3.04688 z M 16.875,524.94467 c 0,-2.90136 -0.361505,-4.51941 -0.931082,-4.16739 -0.512095,0.31649 -0.747249,2.3453 -0.522564,4.50846 0.493913,4.75516 0.414841,4.40176 0.984896,4.40176 0.257812,0 0.46875,-2.13428 0.46875,-4.74283 z m 1.78155,-18.4603 c -0.07132,-4.11402 -0.271207,-4.83557 -0.84405,-3.04687 -1.090197,3.40415 -1.090197,8.4375 0,8.4375 0.527139,0 0.896595,-2.35958 0.84405,-5.39063 z m 202.24033,-51.14744 c -0.50228,-32.41271 -1.39626,-47.73912 -2.86709,-49.15376 -0.40853,-0.39293 -0.47823,1.18402 -0.15486,3.50433 0.32337,2.32031 0.81015,20.67187 1.08176,40.78125 0.45731,33.85912 0.98856,44.09178 2.05365,39.55568 0.2188,-0.93187 0.16774,-16.54125 -0.11346,-34.6875 z m -189.122279,18.33494 -0.100399,-5.39062 -0.90762,4.06199 c -0.499192,2.23409 -0.67819,4.65987 -0.397775,5.39063 1.013682,2.64161 1.504247,1.22414 1.405794,-4.062 z m 194.809149,0 c -0.23581,-0.90234 -0.42875,-0.16406 -0.42875,1.64063 0,1.80469 0.19294,2.54297 0.42875,1.64062 0.2358,-0.90234 0.2358,-2.3789 0,-3.28125 z M 73.125,468.75 c 0,-0.51563 -0.186039,-0.9375 -0.413422,-0.9375 -0.227382,0 -0.674154,0.42187 -0.992828,0.9375 -0.318674,0.51562 -0.132634,0.9375 0.413422,0.9375 0.546055,0 0.992828,-0.42188 0.992828,-0.9375 z m 1.860644,-9.60938 c 0.0079,-1.41796 -0.407519,-2.57812 -0.923144,-2.57812 -0.515625,0 -0.93104,1.79297 -0.923144,3.98437 0.01051,2.91794 0.2576,3.60798 0.923144,2.57813 0.499834,-0.77344 0.915248,-2.56641 0.923144,-3.98438 z M 225,455.625 c 0,-0.51563 -0.42188,-0.9375 -0.9375,-0.9375 -0.51563,0 -0.9375,0.42187 -0.9375,0.9375 0,0.51562 0.42187,0.9375 0.9375,0.9375 0.51562,0 0.9375,-0.42188 0.9375,-0.9375 z m 3.28125,-7.5 c -0.31868,-0.51563 -1.18732,-0.9375 -1.93033,-0.9375 -0.74301,0 -1.35092,0.42187 -1.35092,0.9375 0,0.51562 0.86865,0.9375 1.93033,0.9375 1.06168,0 1.6696,-0.42188 1.35092,-0.9375 z m -57.68476,-22.73438 c -0.0228,-3.94095 -0.22757,-4.5795 -1.02733,-3.20396 -0.90461,1.55587 -0.39559,8.12584 0.62957,8.12584 0.23445,0 0.41344,-2.21484 0.39776,-4.92188 z m -97.631773,-7.32439 c 0.06725,-3.6417 0.393989,-7.06092 0.726085,-7.59826 0.332097,-0.53735 0.991358,-4.62418 1.465026,-9.08185 0.473668,-4.45769 1.091511,-10.28887 1.372985,-12.95821 0.330788,-3.13701 1.019756,-5.04828 1.948214,-5.40456 1.076486,-0.41309 1.312721,-0.0781 0.942721,1.33678 -0.641221,2.45203 0.650125,3.21963 2.224692,1.32239 1.042143,-1.2557 0.925117,-1.72342 -0.759764,-3.03655 -1.095409,-0.85373 -2.138575,-2.60691 -2.318147,-3.89597 l -0.326492,-2.34375 -1.366413,2.34375 c -0.751528,1.28906 -1.679702,5.50781 -2.06261,9.375 -0.382908,3.86719 -1.109838,10.19531 -1.615401,14.0625 -1.717554,13.13803 -2.250785,22.5 -1.281538,22.5 0.513654,0 0.982992,-2.95782 1.050642,-6.62127 z M 57.1875,408.75 c 0,-1.03125 -0.161734,-1.875 -0.359408,-1.875 -0.197674,0 -0.580054,0.84375 -0.849732,1.875 -0.269677,1.03125 -0.107944,1.875 0.359409,1.875 0.467352,0 0.849731,-0.84375 0.849731,-1.875 z M 226.875,394.27408 c 0,-0.74301 -0.42188,-1.61166 -0.9375,-1.93033 -0.51563,-0.31867 -0.9375,0.28924 -0.9375,1.35092 0,1.06168 0.42187,1.93033 0.9375,1.93033 0.51562,0 0.9375,-0.60791 0.9375,-1.35092 z M 138.67429,365.625 c -0.47727,-2.87631 -0.6341,-2.51221 -1.27076,2.95028 -0.6034,5.17727 -0.20053,23.56528 0.55157,25.17472 0.53389,1.14249 1.2071,-25.18454 0.71919,-28.125 z m 87.25267,12.15828 c -0.502,-4.36675 -0.91593,-11.20906 -0.91984,-15.20516 -0.004,-4.214 -0.40088,-7.26562 -0.94462,-7.26562 -1.21604,0 -1.19156,2.40977 0.18796,18.50583 0.62927,7.34227 1.46928,13.02443 1.86668,12.62703 0.3974,-0.3974 0.31183,-4.29534 -0.19018,-8.66208 z M 28.947118,376.5274 C 27.792333,373.99293 26.25,373.2113 26.25,375.16056 c 0,1.22374 2.912412,4.73953 3.466853,4.18509 0.194341,-0.19434 -0.15204,-1.46256 -0.769735,-2.81825 z M 81.105064,367.5 c 0.395802,-1.80469 0.686336,-4.53021 0.645631,-6.0567 -0.05338,-2.00182 0.159928,-2.39693 0.765257,-1.41749 0.51714,0.83675 0.67773,-1.58669 0.418399,-6.31402 -0.249152,-4.54176 -0.04111,-7.90667 0.509891,-8.2472 0.511917,-0.31639 0.930758,-3.37691 0.930758,-6.80117 0,-6.9186 -1.428368,-7.07092 -2.118658,-0.22592 -0.233994,2.32031 -1.078426,7.80469 -1.876517,12.1875 -0.79809,4.38281 -1.728294,11.55469 -2.067122,15.9375 -0.546579,7.07015 -0.464448,7.75732 0.728335,6.09375 0.739412,-1.03125 1.668224,-3.35156 2.064026,-5.15625 z m -41.383272,-3.90016 c 1.095761,-0.19914 2.426206,-2.03451 3.548446,-4.89515 1.91217,-4.87419 1.783708,-5.84824 -0.648214,-4.91503 -1.133183,0.43484 -1.368691,1.27881 -0.923047,3.30781 0.67457,3.0713 -0.756632,4.59234 -2.758117,2.93125 -0.99209,-0.82335 -1.485528,-0.71992 -2.139401,0.44849 -0.760177,1.35836 -1.32721,1.26488 -5.371557,-0.88552 C 26.899756,357.18299 20.625,356.34471 20.625,358.1482 c 0,0.52839 1.015973,1.34698 2.257718,1.81909 1.241746,0.47212 3.020205,2.14917 3.952133,3.7268 2.020192,3.41991 4.578769,3.97043 3.561845,0.76638 -0.619689,-1.95246 -0.540807,-2.00249 1.108698,-0.70312 0.976721,0.7694 2.148445,1.98918 2.603832,2.71063 0.676531,1.0718 1.105224,0.95859 2.34375,-0.61891 0.833675,-1.06185 2.304643,-2.074 3.268816,-2.24923 z M 90,358.4831 c 0,-1.94877 -0.380708,-3.04597 -0.9375,-2.70185 -0.515625,0.31867 -0.9375,2.05597 -0.9375,3.86065 0,1.94877 0.380708,3.04597 0.9375,2.70185 C 89.578125,362.02508 90,360.28778 90,358.4831 Z M 25.181563,347.76881 c 0.69535,-1.5709 1.031863,-3.74492 0.747809,-4.83114 -0.579046,-2.21427 1.327602,-6.44465 4.198611,-9.31565 4.1754,-4.1754 -1.704357,-3.28381 -6.503808,0.98622 -3.781521,3.36439 -4.701083,7.68499 -2.670132,12.54574 1.761905,4.21684 2.580425,4.33588 4.22752,0.61483 z M 42.1875,346.78723 c 0,-0.5639 -0.84375,-1.24591 -1.875,-1.51559 -1.03125,-0.26968 -1.875,-1.27003 -1.875,-2.223 0,-0.95297 -0.84375,-2.18423 -1.875,-2.73614 -1.03125,-0.55191 -1.875,-1.56978 -1.875,-2.26194 0,-0.69216 -0.603392,-1.75925 -1.34087,-2.3713 -1.070767,-0.88865 -1.542888,-0.73534 -2.34375,0.76107 C 30.451296,337.47098 30,339.44239 30,340.82125 c 0,2.17152 0.298256,2.43216 2.228762,1.94763 1.902904,-0.4776 2.310682,-0.14978 2.789062,2.24212 0.494908,2.47453 0.945997,2.8015 3.864988,2.8015 1.817579,0 3.304688,-0.46137 3.304688,-1.02527 z m 6.520215,-7.58721 c 0.02326,-0.86969 0.922742,-5.08844 1.998856,-9.375 1.076114,-4.28657 2.159095,-8.84846 2.406625,-10.13752 0.449315,-2.3399 0.447255,-2.34059 -1.253446,-0.42316 -0.936925,1.05633 -2.473682,2.21548 -3.415014,2.5759 -1.153475,0.44165 -1.656011,1.49664 -1.541285,3.23566 0.42163,6.3911 -0.112582,14.2991 -0.965951,14.2991 -0.515625,0 -0.9375,-2.13428 -0.9375,-4.74283 0,-5.23435 -1.322178,-5.52915 -2.264725,-0.50495 -0.440732,2.3493 -0.03115,4.38597 1.52697,7.59307 l 2.129251,4.38264 1.136967,-2.66084 c 0.625332,-1.46347 1.155995,-3.37239 1.179252,-4.24207 z m 175.326275,-0.0594 c -0.0219,-3.78971 -0.2476,-4.54575 -0.98101,-3.28674 -0.83923,1.44069 -0.30735,8.20862 0.6451,8.20862 0.20043,0 0.35159,-2.21484 0.33591,-4.92188 z M 90.402529,328.125 c 1.437629,-10.20052 1.630823,-12.61333 0.957812,-11.96212 -0.787101,0.76162 -2.156952,7.24064 -2.925564,13.83712 -0.65203,5.59594 1.157882,3.87133 1.967752,-1.875 z m -18.78281,-0.93162 c 0.312279,-2.06574 0.828329,-5.49894 1.146776,-7.62934 0.375238,-2.51033 0.245127,-3.66712 -0.369719,-3.28713 -0.521793,0.32248 -1.214273,2.38195 -1.538846,4.57659 -0.324573,2.19464 -0.840623,5.62784 -1.146776,7.62933 -0.358815,2.34579 -0.219477,3.43072 0.39207,3.05276 0.521793,-0.32248 1.204216,-2.27648 1.516495,-4.34221 z m 14.754258,-1.21003 c 0.376432,-2.68928 0.973589,-6.04976 1.327014,-7.46773 0.380378,-1.5261 0.25886,-2.57812 -0.297794,-2.57812 -1.084924,0 -2.02774,3.89199 -2.725256,11.25 -0.608781,6.42195 0.765107,5.44651 1.696036,-1.20415 z M 161.25,327.29394 c 0,-3.60806 0.0411,-3.64915 4.21875,-4.21875 2.32031,-0.31636 6.13476,-0.83667 8.47655,-1.15624 4.11112,-0.56104 4.29582,-0.4803 5.36178,2.34375 1.61146,4.26926 3.29842,3.62137 3.97941,-1.52833 0.32389,-2.44921 0.99108,-6.56495 1.48264,-9.14609 0.54017,-2.83629 0.57176,-7.65801 0.0799,-12.1875 -0.95983,-8.83847 -0.21587,-11.80668 4.11076,-16.40078 7.69043,-8.16583 19.56641,-24.16778 25.2005,-33.9557 2.86305,-4.97388 2.70635,-6.46638 -1.30728,-12.45055 -1.38334,-2.0625 -3.06644,-5.12646 -3.74024,-6.8088 -0.74951,-1.87138 -2.08886,-3.27559 -3.45017,-3.61726 -2.48045,-0.62256 -2.44495,-0.56634 -1.65602,-2.62226 0.69356,-1.80738 3.50873,-1.94097 4.92559,-0.23375 0.57021,0.68705 2.54907,4.27217 4.39749,7.96694 2.548,5.09316 3.94738,6.86499 5.78643,7.32656 3.02746,0.75985 5.36661,-1.81835 3.98758,-4.39508 -1.70699,-3.18955 -14.41989,-14.0226 -16.45592,-14.0226 -1.11092,0 -3.09252,0.84375 -4.40354,1.875 -1.31101,1.03125 -3.27924,1.875 -4.37382,1.875 -2.09889,0 -6.95146,4.82946 -9.58931,9.54365 -0.85949,1.53602 -2.15562,3.49753 -2.88029,4.35892 -0.72468,0.86141 -1.88779,3.46462 -2.58469,5.78493 -0.69691,2.32031 -1.61561,4.61953 -2.04158,5.10937 -0.42597,0.48985 -0.77449,1.9875 -0.77449,3.32813 0,1.34063 -0.34852,2.83828 -0.77449,3.32812 -0.42597,0.48985 -1.35563,2.78907 -2.06593,5.10938 -0.71029,2.32031 -1.97964,5.48437 -2.82078,7.03125 -0.84113,1.54687 -1.831,4.02471 -2.1997,5.50628 -0.36871,1.48158 -2.46182,6.54408 -4.65136,11.25 -3.74616,8.05154 -4.74189,11.42849 -7.08402,24.02497 -1.25969,6.77493 -2.0815,19.25972 -1.31801,20.0232 1.41556,1.41557 2.16429,0.36327 2.16429,-3.04176 z M 44.0625,325.75183 c 0,-0.78963 -0.632813,-1.67851 -1.40625,-1.9753 -0.773438,-0.29681 -1.40625,-1.33825 -1.40625,-2.31433 0,-0.97608 -0.421875,-1.7747 -0.9375,-1.7747 -1.269892,0 -1.179295,1.91804 0.234375,4.96203 1.267301,2.72882 3.515625,3.43376 3.515625,1.1023 z M 60,324.84375 c 0,-0.77344 -0.165802,-1.40625 -0.368448,-1.40625 -0.202646,0 -0.611281,0.63281 -0.908076,1.40625 -0.296797,0.77344 -0.130995,1.40625 0.368447,1.40625 C 59.591365,326.25 60,325.61719 60,324.84375 Z M 219.375,324.375 c 0,-0.51563 -0.42188,-0.9375 -0.9375,-0.9375 -0.51563,0 -0.9375,0.42187 -0.9375,0.9375 0,0.51562 0.42187,0.9375 0.9375,0.9375 0.51562,0 0.9375,-0.42188 0.9375,-0.9375 z M 61.846288,318.28125 c 0,-0.51563 -0.408954,-0.30469 -0.908788,0.46875 -0.499834,0.77344 -0.908788,1.82812 -0.908788,2.34375 0,0.51562 0.408954,0.30469 0.908788,-0.46875 0.499834,-0.77344 0.908788,-1.82813 0.908788,-2.34375 z m 157.019922,-1.34147 c 0.29666,-0.48 0.11061,-1.13771 -0.41342,-1.46158 -0.52403,-0.32387 -0.95279,0.0688 -0.95279,0.87272 0,1.64675 0.56256,1.88921 1.36621,0.58886 z M 69.375,312.65625 c 0,-1.28906 -0.421875,-2.34375 -0.9375,-2.34375 -0.515625,0 -0.9375,1.05469 -0.9375,2.34375 0,1.28906 0.421875,2.34375 0.9375,2.34375 0.515625,0 0.9375,-1.05469 0.9375,-2.34375 z m 5.930534,-0.23438 c 0.285089,-1.41796 0.816014,-3.80098 1.179833,-5.29558 0.470583,-1.93321 0.351698,-2.52601 -0.41194,-2.05405 C 75.483042,305.43712 75,306.52961 75,307.5 c 0,0.97039 -0.421875,2.02508 -0.9375,2.34375 C 72.903714,310.55992 72.812088,315 73.956095,315 c 0.457101,0 1.064349,-1.16016 1.349439,-2.57813 z M 46.875,311.71875 c 0,-0.77344 -0.421875,-1.40625 -0.9375,-1.40625 -0.515625,0 -0.9375,0.63281 -0.9375,1.40625 0,0.77344 0.421875,1.40625 0.9375,1.40625 0.515625,0 0.9375,-0.63281 0.9375,-1.40625 z m 8.793536,0.23437 c 0.163455,-0.64453 0.736137,-2.51582 1.272626,-4.15843 1.106924,-3.38915 0.315207,-4.10042 -3.498739,-3.14322 -2.633286,0.66089 -3.679884,3.51392 -1.584062,4.31816 0.815503,0.31294 1.179491,1.26238 0.897445,2.34091 -0.327463,1.25222 0.0042,1.81446 1.070525,1.81446 0.849758,0 1.678751,-0.52734 1.842205,-1.17188 z m 9.942108,-2.8125 c -0.01121,-1.64691 -0.203185,-1.81087 -0.875641,-0.74789 -0.473706,0.74882 -0.653286,1.69804 -0.399065,2.10938 0.813156,1.31572 1.289464,0.80698 1.274706,-1.36149 z m 24.375,-2.86783 c -0.01092,-2.27631 -0.231632,-2.65532 -0.923144,-1.58529 -1.201576,1.85931 -1.201576,5.89886 0,5.15625 0.515625,-0.31867 0.93104,-1.92561 0.923144,-3.57096 z m 8.164034,-6.95807 c -0.237694,-0.91216 -0.447806,-0.39285 -0.466912,1.15403 -0.01913,1.54688 0.175368,2.29318 0.432178,1.65847 0.2568,-0.63472 0.272428,-1.90035 0.03469,-2.8125 z m -6.571759,-3.2405 c -0.299274,-0.74787 -0.521421,-0.52573 -0.566406,0.56641 -0.04071,0.98827 0.18087,1.54199 0.492394,1.23047 0.311522,-0.31152 0.344829,-1.12013 0.07402,-1.79688 z m -16.875,-6.5625 c -0.299274,-0.74787 -0.521421,-0.52573 -0.566406,0.56641 -0.04071,0.98827 0.18087,1.54199 0.492394,1.23047 0.311522,-0.31152 0.344829,-1.12013 0.07402,-1.79688 z M 168.75,278.4375 c 0,-1.03125 -0.42188,-1.875 -0.9375,-1.875 -0.51563,0 -0.9375,0.84375 -0.9375,1.875 0,1.03125 0.42187,1.875 0.9375,1.875 0.51562,0 0.9375,-0.84375 0.9375,-1.875 z m -88.125,-3.36753 c 0,-0.69461 0.746952,-2.64686 1.659894,-4.33833 0.912942,-1.69146 2.229774,-4.72352 2.926294,-6.73789 0.696519,-2.01437 2.480816,-5.57744 3.965106,-7.91792 1.484288,-2.34048 2.698706,-4.62415 2.698706,-5.07484 0,-0.45067 1.265625,-2.65894 2.8125,-4.90724 1.546875,-2.2483 2.8125,-4.61141 2.8125,-5.25134 0,-0.63994 0.557925,-1.82955 1.239834,-2.64359 1.355886,-1.6186 10.947666,-18.51529 10.947666,-19.28518 0,-1.59965 -2.76333,0.13608 -6.48301,4.07218 -2.36403,2.50158 -5.420099,5.26719 -6.791259,6.14581 -1.371159,0.87861 -3.569324,3.7889 -4.884803,6.4673 -1.31548,2.6784 -2.991784,5.92451 -3.72512,7.21357 -2.450061,4.30673 -3.748368,7.49244 -3.254674,7.98613 0.268928,0.26893 2.39787,-2.78902 4.730983,-6.79546 C 93.124869,237.40009 97.5,232.01575 97.5,233.8866 c 0,0.40684 -1.644713,3.9527 -3.654919,7.87968 -6.005853,11.73257 -7.342349,14.45869 -9.015792,18.38997 -0.87795,2.0625 -2.183077,4.97498 -2.900281,6.47216 -0.717204,1.49719 -1.304008,3.41672 -1.304008,4.26563 0,0.8489 -0.374458,1.94424 -0.83213,2.43408 -0.457671,0.48985 -1.151338,1.94201 -1.54148,3.22703 -0.634902,2.09118 -0.547566,2.20213 0.832129,1.05708 0.847814,-0.70362 1.541481,-1.84764 1.541481,-2.54226 z m 3.75,-21.17759 c 0,-2.49267 -1.54752,-1.33704 -2.103373,1.57072 -0.366194,1.91562 -0.209102,2.164 0.825561,1.30531 0.702796,-0.58327 1.277812,-1.87749 1.277812,-2.87603 z m 145.7095,-7.25061 c 1.53001,-1.69063 1.53221,-1.93751 0.0375,-4.21875 -1.76781,-2.69799 -3.247,-3.16119 -3.247,-1.01677 0,0.77344 0.44677,1.40625 0.99283,1.40625 0.54606,0 0.7321,0.42187 0.41342,0.9375 -0.31868,0.51562 -2.45295,0.9375 -4.74283,0.9375 -4.5483,0 -5.34953,1.01644 -2.05405,2.60579 3.28498,1.58428 6.81906,1.31655 8.60013,-0.65152 z m 13.47141,-6.21723 c 0.30421,-2.12571 -4.13938,-10.73704 -5.54049,-10.73704 -0.48772,0 -1.1577,0.70605 -1.48885,1.56901 -0.33115,0.86295 -1.37259,2.33951 -2.31433,3.28125 -2.2664,2.2664 -2.16401,3.2207 0.64713,6.03184 2.98349,2.98349 8.26141,2.89546 8.69654,-0.14506 z m -13.89517,-8.15892 c 0.54157,-0.64453 1.88652,-2.37281 2.98878,-3.84061 1.8843,-2.50919 2.29482,-2.63242 6.86632,-2.06125 3.87244,0.48383 5.12075,0.29594 6.1324,-0.92301 0.97841,-1.17892 1.02368,-1.92523 0.19708,-3.24884 -0.71198,-1.14007 -0.79398,-2.6917 -0.24364,-4.61061 0.45622,-1.59074 0.62693,-5.80775 0.37934,-9.37112 -0.27786,-3.99936 -0.0733,-6.71173 0.53442,-7.08735 0.66413,-0.41046 0.98456,2.63119 0.98456,9.34592 0,11.76936 1.69195,12.76844 1.94253,1.14705 0.40589,-18.8247 0.4237,-18.65448 -2.62087,-25.0533 -4.36789,-9.1801 -5.24831,-12.72194 -4.51316,-18.15617 0.85295,-6.30504 0.83214,-8.26564 -0.16826,-15.85952 -0.80622,-6.11974 -1.02291,-6.52138 -5.74932,-10.65592 -3.00755,-2.63094 -5.9976,-6.44799 -7.71317,-9.84653 -4.66145,-9.23426 -9.29472,-9.58466 -14.74575,-1.11517 -5.28482,8.2112 -7.18104,10.77031 -9.79437,13.21829 -1.50533,1.41007 -3.32488,4.79425 -4.36557,8.11954 -0.98143,3.13595 -2.65846,8.09101 -3.72671,11.01123 -3.71298,10.14994 -5.72536,21.77379 -5.89595,34.05603 -0.0896,6.45052 -0.4541,11.72822 -0.81002,11.72822 -0.72206,0 -3.71438,7.38898 -3.71438,9.17197 0,0.62729 -0.86969,2.01022 -1.93264,3.07317 -3.67131,3.67131 -0.61129,6.64441 5.30924,5.15845 2.79769,-0.70218 2.90356,-2.01358 0.21923,-2.71554 -1.64803,-0.43098 -1.81796,-0.78515 -0.90465,-1.88562 1.13512,-1.36773 5.15574,-2.35184 11.60075,-2.83944 1.93088,-0.14608 3.76609,-0.52101 4.07825,-0.83317 0.80396,-0.80396 -0.44594,-2.56732 -1.81975,-2.56732 -2.12489,0 -1.54778,-4.1718 1.38619,-10.02052 2.9946,-5.96956 5.82969,-9.66698 7.4124,-9.66698 0.49554,0 0.90098,0.19109 0.90098,0.42464 0,1.0333 -2.23591,5.20036 -2.79035,5.20036 -0.90911,0 -4.70965,7.05254 -4.70965,8.73953 0,0.79915 1.71689,2.41794 3.81531,3.59732 2.61265,1.4684 3.97766,2.95614 4.33038,4.71974 0.2833,1.41648 1.30107,2.82488 2.2617,3.12978 0.96064,0.3049 3.71483,3.05956 6.12041,6.12149 4.31635,5.49402 6.79112,6.73602 8.75794,4.39526 z M 63.75,229.63217 c 0,-0.4852 -0.421875,-0.88217 -0.9375,-0.88217 -0.515625,0 -0.9375,0.65771 -0.9375,1.46158 0,0.80387 0.421875,1.20085 0.9375,0.88217 0.515625,-0.31868 0.9375,-0.97639 0.9375,-1.46158 z m -3.317212,-9.6725 c 0.627996,0.24099 1.69975,-0.23412 2.381675,-1.05578 1.039837,-1.25293 0.957737,-2.05386 -0.508896,-4.96454 l -1.748759,-3.4706 -0.574176,3.75 -0.574177,3.75 -1.301477,-2.8125 -1.301478,-2.8125 -0.343805,3.13612 c -0.444511,4.05475 0.413633,6.4573 1.808278,5.06265 0.561552,-0.56155 1.53482,-0.82383 2.162815,-0.58285 z m 74.344162,-0.81905 c 0.51922,-0.64453 1.23721,-2.54296 1.59553,-4.21875 0.51437,-2.40557 0.34614,-3.04687 -0.7993,-3.04687 -0.79794,0 -2.01414,1.07518 -2.70267,2.38928 l -1.25188,2.38929 -2.55562,-2.01026 c -1.54912,-1.21854 -3.18359,-1.76929 -4.15007,-1.39842 -1.32292,0.50766 -0.95904,1.1555 2.13694,3.80453 3.96561,3.39311 6.19274,3.99584 7.72707,2.0912 z m 14.06085,-7.5 c 1.47284,-2.1914 3.25396,-5.88281 3.95806,-8.20312 0.70409,-2.32031 1.62868,-4.61953 2.05465,-5.10938 0.42597,-0.48984 0.77449,-1.65572 0.77449,-2.59084 0,-1.6442 0.3532,-2.57853 2.66613,-7.05268 0.59613,-1.15317 1.08387,-3.49457 1.08387,-5.20313 0,-1.70855 0.38093,-3.50725 0.84651,-3.99709 0.46557,-0.48985 1.07105,-1.73438 1.34551,-2.76563 0.27446,-1.03125 0.27773,0.65625 0.007,3.75 -0.27046,3.09375 -0.87264,6.89063 -1.33817,8.4375 -2.19069,7.27913 -3.91219,12.42717 -5.01599,15 -2.84932,6.64136 -3.3883,8.23808 -2.93414,8.69225 0.69439,0.69438 3.33901,-1.68643 3.33901,-3.00596 0,-0.61344 0.84375,-2.86172 1.875,-4.99616 1.03125,-2.13444 1.875,-4.55437 1.875,-5.37763 0,-0.82326 0.82042,-3.19491 1.82316,-5.27033 1.00274,-2.07544 2.29905,-6.16834 2.8807,-9.09535 2.42427,-12.20065 3.72649,-15.16557 6.6607,-15.16557 2.56185,0 2.28532,-3.60752 -0.34917,-4.55519 -4.09873,-1.4744 -15.54965,-3.20431 -17.14871,-2.59069 -1.37193,0.52646 -1.52792,1.40995 -1.01678,5.75887 0.49611,4.22123 0.3516,5.13701 -0.81069,5.13701 -1.72803,0 -1.96162,5.71177 -0.33979,8.30872 0.68283,1.09341 0.79368,2.71232 0.30402,4.44041 l -0.77063,2.71962 -0.53839,-3.24837 -0.5384,-3.24837 -1.64483,2.51866 c -1.73434,2.65576 -4.04301,11.72775 -3.19923,12.57152 0.27242,0.27242 1.46417,-1.54966 2.64833,-4.04907 2.07088,-4.371 2.16557,-4.44166 2.48204,-1.85204 0.18096,1.48078 -0.12583,3.14719 -0.68177,3.70313 -0.55593,0.55593 -1.01079,1.9562 -1.01079,3.11171 0,1.1555 -0.42187,2.36165 -0.9375,2.68033 -0.51562,0.31867 -0.9375,1.6092 -0.9375,2.86783 0,1.25863 -0.44317,2.28842 -0.98482,2.28842 -0.59433,0 -0.87312,1.85853 -0.70312,4.68732 0.15493,2.57802 0.57783,4.6874 0.93978,4.6875 0.36195,1e-4 1.86313,-1.79279 3.33596,-3.9842 z M 159.375,210 c 0,-0.51563 -0.18604,-0.9375 -0.41342,-0.9375 -0.22738,0 -0.67415,0.42187 -0.99283,0.9375 -0.31868,0.51562 -0.13264,0.9375 0.41342,0.9375 0.54605,0 0.99283,-0.42188 0.99283,-0.9375 z m 16.2167,-2.22309 c 3.39916,-0.98415 4.72899,-3.21676 1.5958,-2.67913 -2.22669,0.38207 -8.72522,2.22986 -10.78125,3.06553 -1.03125,0.41914 -2.50781,0.99845 -3.28125,1.28735 -2.46767,0.92172 8.66413,-0.57281 12.4667,-1.67375 z M 58.59375,205.3125 c 0,-0.6875 -0.527344,-1.42578 -1.171875,-1.64063 -0.697116,-0.23236 -1.171875,0.4323 -1.171875,1.64063 0,1.20833 0.474759,1.87299 1.171875,1.64062 C 58.066406,206.73828 58.59375,206 58.59375,205.3125 Z m 110.03001,-2.39159 c 0.29632,-1.52916 0.13831,-1.59802 -1.17188,-0.51065 -1.79181,1.48706 -2.0149,3.22514 -0.34251,2.66831 0.64454,-0.21461 1.326,-1.18556 1.51439,-2.15766 z m 15.80984,-6.61232 c -0.31153,-0.31152 -1.12013,-0.34482 -1.79688,-0.074 -0.74787,0.29927 -0.52573,0.52142 0.56641,0.5664 0.98827,0.0407 1.54199,-0.18087 1.23047,-0.49239 z M 140.625,192.5456 c 0,-1.32378 -0.40799,-2.0916 -0.9375,-1.76435 -0.51563,0.31868 -0.9375,1.63409 -0.9375,2.92315 0,1.32378 0.40799,2.0916 0.9375,1.76435 0.51562,-0.31868 0.9375,-1.63409 0.9375,-2.92315 z m 27.24137,1.41625 c 0.70875,-1.32431 0.74655,-2.28643 0.11466,-2.91832 -1.39476,-1.39476 -2.98103,-0.008 -2.98103,2.60555 0,2.81174 1.44459,2.96937 2.86637,0.31277 z m -45.28824,-8.1078 c 0.7491,-0.2463 1.17187,0.55608 1.17187,2.22408 0,1.92477 0.27527,2.3341 1.04919,1.56018 0.77264,-0.77264 0.77415,-2.24295 0.006,-5.57813 -0.57391,-2.49091 -1.20482,-8.51785 -1.40203,-13.3932 -0.39355,-9.72935 0.11159,-8.98314 -7.62162,-11.25894 -2.0625,-0.60698 -5.85938,-0.96818 -8.4375,-0.80269 -4.46974,0.28692 -4.67532,0.41847 -4.42506,2.8317 0.14434,1.39194 0.98215,4.13413 1.86181,6.09375 l 1.59937,3.56295 0.30416,-3.51563 c 0.35528,-4.10664 2.06597,-4.7839 2.06597,-0.81791 0,1.48374 0.63281,3.22289 1.40625,3.86479 1.52577,1.26628 1.59084,1.12768 1.76071,-3.75 0.0912,-2.61816 0.4932,-3.28125 1.98929,-3.28125 1.67291,0 1.95061,0.85886 2.57659,7.96875 0.38589,4.38281 0.75097,9.97266 0.81131,12.42187 0.0768,3.11559 0.49958,4.45313 1.40776,4.45313 0.81062,0 1.35096,1.14418 1.43889,3.04687 0.1187,2.56847 0.22911,2.39591 0.70312,-1.09907 0.30929,-2.28028 1.08967,-4.31934 1.7342,-4.53125 z m 18.52062,0.92847 c 1.51675,-1.10842 3.55113,-7.82014 2.64502,-8.72625 -1.52392,-1.52392 -6.3768,0.50434 -6.7121,2.80532 -0.70902,4.8657 1.3698,7.89208 4.06708,5.92093 z m 27.6369,-3.32223 c -0.0117,-1.6699 -0.18432,-1.79105 -0.92315,-0.64779 -1.19362,1.84699 -1.19362,4.01894 0,3.28125 0.51562,-0.31868 0.93104,-1.50373 0.92315,-2.63346 z m 17.82685,0.26029 c 0,-0.53181 -0.63281,-1.20976 -1.40625,-1.50655 -1.87755,-0.72049 -4.48746,0.34275 -3.7541,1.52935 0.7678,1.24231 5.16035,1.22289 5.16035,-0.0228 z m -44.70033,-9.57996 c 1.19826,-0.88008 1.70664,-3.06555 2.04171,-8.77713 l 0.44617,-7.60527 -4.88216,-0.57823 c -2.6852,-0.31802 -5.18038,-0.27064 -5.54487,0.10528 -1.35441,1.39686 1.97312,6.92448 4.81388,7.99676 3.88416,1.4661 3.54009,2.53047 -0.81799,2.53047 -3.39064,0 -3.67578,0.21153 -4.10713,3.04687 -0.25494,1.67579 -0.27792,3.36329 -0.0511,3.75 0.6662,1.13571 6.36596,0.80593 8.10146,-0.46875 z M 176.25,169.6875 c 0,-0.51563 -0.42188,-0.9375 -0.9375,-0.9375 -0.51563,0 -0.9375,0.42187 -0.9375,0.9375 0,0.51562 0.42187,0.9375 0.9375,0.9375 0.51562,0 0.9375,-0.42188 0.9375,-0.9375 z m 9.375,-5.99345 c 0,-1.2339 0.63914,-2.48871 1.42032,-2.78848 2.03737,-0.78181 3.61563,-5.31149 2.3014,-6.60511 -1.32393,-1.30317 -3.72172,1.72654 -3.72172,4.70257 0,1.69664 -0.69044,2.19881 -3.72893,2.71216 -2.97742,0.50303 -4.297,0.22549 -6.5477,-1.37715 -1.99559,-1.42098 -4.80806,-2.16329 -9.63045,-2.5418 -8.63935,-0.6781 -7.65319,0.64241 2.56333,3.43241 4.125,1.12648 9.39844,2.61834 11.71875,3.31523 5.66723,1.70211 5.625,1.70849 5.625,-0.84983 z m -1.34501,-12.52218 c 6.15854,-9.76391 7.40207,-11.39876 9.54107,-12.54352 2.08681,-1.11683 2.79173,-3.10034 1.40617,-3.95666 -0.39064,-0.24144 -2.39454,-0.75438 -4.45312,-1.13988 -3.54583,-0.66402 -3.66883,-0.61083 -2.33661,1.0105 1.31745,1.60335 1.22619,1.67578 -1.44523,1.14707 -2.33198,-0.46153 -3.01519,-0.19143 -3.75,1.48251 -1.34575,3.06568 -5.68691,3.21648 -8.74017,0.30362 -2.7153,-2.59045 -11.8566,-7.13937 -14.37607,-7.15385 -1.13825,-0.007 -2.03175,1.52901 -3.13133,5.38146 -2.35088,8.23646 -3.46434,10.07813 -6.09314,10.07813 -2.11344,0 -2.35592,-0.44753 -2.879,-5.31351 -0.67565,-6.28517 -3.42379,-12.06369 -6.46883,-13.602 -1.20085,-0.60664 -2.55484,-1.7668 -3.00888,-2.57812 -0.90696,-1.62065 -4.05094,-1.9941 -4.92203,-0.58465 -0.30269,0.48975 0.26003,1.32415 1.25047,1.85422 1.09808,0.58767 1.99846,2.34375 2.30732,4.50016 1.58672,11.07824 3.08694,13.54891 4.75188,7.82577 0.46131,-1.58571 1.19959,-2.88312 1.64063,-2.88312 1.12689,0 1.00487,6.32639 -0.13562,7.03125 -0.51562,0.31867 -0.9375,1.6092 -0.9375,2.86783 0,1.64976 -0.51408,2.28842 -1.84202,2.28842 -2.21386,0 -3.34325,-1.94111 -4.22443,-7.26071 -0.36256,-2.18871 -1.07243,-4.23486 -1.5775,-4.54701 -1.2059,-0.74528 -3.29989,2.18014 -4.09002,5.71397 -0.34585,1.54687 -0.83548,2.28516 -1.08806,1.64062 -0.83196,-2.12306 -2.2258,-1.22012 -1.65111,1.06961 0.30941,1.2328 0.13244,2.5073 -0.39328,2.83221 -1.87315,1.15768 -2.53704,-2.36481 -1.88209,-9.98604 0.36555,-4.25371 0.52277,-7.87589 0.34937,-8.04929 -0.54595,-0.54594 -4.54113,1.878 -8.74525,5.30586 -3.63572,2.96444 -7.66811,8.90771 -7.66811,11.3019 0,1.19459 9.23873,3.85388 13.38887,3.85388 1.7911,0 3.74365,0.58692 4.33899,1.30427 0.59535,0.71735 2.22904,1.53553 3.63042,1.81819 1.40139,0.28265 3.74597,0.80684 5.21019,1.16485 1.87429,0.45827 3.67786,0.0885 6.09375,-1.24949 1.88735,-1.04523 5.18692,-2.18707 7.33241,-2.53742 2.14549,-0.35034 4.63665,-1.45001 5.53593,-2.4437 0.89927,-0.99368 1.97688,-1.8067 2.39468,-1.8067 0.41781,0 2.75533,-1.26562 5.19449,-2.8125 5.21616,-3.30799 8.46522,-3.82378 6.74604,-1.07094 -0.59819,0.95785 -2.71114,2.74494 -4.69544,3.97131 -4.25201,2.62789 -4.6008,4.35634 -1.02971,5.10282 1.41797,0.2964 5.32032,1.7406 8.67188,3.20934 3.35156,1.46873 6.60813,2.71082 7.23682,2.7602 0.62868,0.0494 2.67311,-2.33601 4.54317,-5.30085 z m -61.97891,2.64717 c 0.59023,-0.95501 -8.92436,-2.42228 -10.90771,-1.6821 -1.88619,0.7039 2.87975,2.42191 6.91067,2.49113 1.90317,0.0327 3.70184,-0.33138 3.99704,-0.80903 z m 75.67198,-11.93309 c 2.08014,-1.88251 2.20333,-3.13595 0.30819,-3.13595 -0.77344,0 -1.40625,0.63281 -1.40625,1.40625 0,0.77344 -0.42188,1.40625 -0.9375,1.40625 -0.51563,0 -0.9375,0.42187 -0.9375,0.9375 0,1.36323 1.02127,1.1523 2.97306,-0.61405 z M 129.375,138.41208 c 0,-0.70149 1.05469,-2.8296 2.34375,-4.72914 2.30818,-3.40129 3.16516,-8.05794 1.48293,-8.05794 -2.27973,0 -3.82668,1.34464 -3.82668,3.32622 0,1.20347 -0.42188,2.44885 -0.9375,2.76753 -0.51563,0.31868 -0.9375,2.24201 -0.9375,4.27408 0,2.03207 0.42187,3.69467 0.9375,3.69467 0.51562,0 0.9375,-0.57394 0.9375,-1.27542 z m 75,-3.6376 c 0,-1.09327 -0.93289,-0.85052 -2.41072,0.6273 -1.93544,1.93545 -1.64455,2.61725 0.53572,1.25565 1.03125,-0.64402 1.875,-1.49135 1.875,-1.88295 z m -50.7423,-5.79076 c 0.85965,-3.414 2.84189,-6.00595 10.89655,-14.24821 5.41516,-5.54128 9.84575,-10.84241 9.84575,-11.78028 0,-2.4414 -1.34514,-2.10326 -2.85484,0.71764 -2.07495,3.87706 -6.01226,6.16938 -10.02639,5.8374 -2.83351,-0.23433 -3.58379,-0.70532 -3.8246,-2.40089 -0.2559,-1.80185 0.12803,-2.10938 2.63346,-2.10938 1.61316,0 2.69236,-0.38942 2.3982,-0.86537 -0.95893,-1.55159 -5.90191,-2.11067 -7.85837,-0.88883 -1.51286,0.9448 -2.16574,0.9336 -3.36009,-0.0577 C 150.2325,102.15087 150,102.20109 150,103.50838 c 0,0.85276 0.62912,1.79188 1.39805,2.08695 0.84614,0.32469 1.37859,1.70095 1.34877,3.4862 -0.0271,1.62234 0.22497,4.24974 0.56017,5.83865 0.35796,1.69678 -0.006,4.95867 -0.88002,7.90454 -1.61159,5.4268 -1.99534,11.66108 -0.66728,10.8403 0.45221,-0.27949 1.29506,-2.38607 1.87301,-4.6813 z m 50.29,-1.02625 c 3.23063,-6.33144 4.19653,-8.89497 3.35152,-8.89497 -0.44582,0 -1.50275,1.45864 -2.34874,3.24143 -0.84598,1.78278 -1.97681,3.51253 -2.51294,3.84388 -2.5309,1.56418 -1.82318,-1.33747 2.25414,-9.24197 5.20609,-10.09277 6.03299,-13.98759 4.40791,-20.761681 C 207.0081,87.530043 200.50157,82.5 191.42542,82.5 c -5.74344,0 -6.76899,1.096905 -9.95942,10.652439 -3.39988,10.182811 -6.31687,15.120061 -12.88481,21.808641 -8.12949,8.2788 -7.786,8.79178 7.20347,10.75807 12.82745,1.68267 16.25618,2.49878 20.70626,4.92844 3.83984,2.09647 5.24985,1.58608 7.43178,-2.69012 z m 7.91932,-2.27084 c 1.28166,-2.39481 1.22572,-2.87413 -0.33547,-2.87413 -1.22837,0 -2.44405,1.90341 -2.44405,3.82668 0,1.5257 1.77959,0.91583 2.77952,-0.95255 z M 123.75,121.875 c 1.06712,-0.68963 0.67146,-0.91225 -1.64062,-0.92315 -1.67579,-0.008 -3.04688,0.40752 -3.04688,0.92315 0,1.19081 2.84485,1.19081 4.6875,0 z m 25.87779,-1.45715 c 0.86108,-3.4308 0.0274,-7.42046 -3.43041,-16.41712 -4.03444,-10.49688 -4.90315,-11.18823 -14.05841,-11.18823 -4.03745,0 -7.60154,0.421875 -7.92022,0.9375 -0.36221,0.586078 1.63772,0.948675 5.33529,0.967313 5.05332,0.0255 9.19596,1.337503 9.19596,2.912484 0,0.752053 -18.29125,0.332484 -19.49802,-0.447244 -0.66922,-0.432412 -1.83925,-0.54734 -2.60005,-0.255394 -1.5006,0.575841 -7.90193,13.677071 -7.90193,16.172431 0,0.84103 1.13294,2.57913 2.51765,3.86242 2.49024,2.30788 2.5693,2.31733 7.26562,0.86775 10.82025,-3.3398 14.41584,-2.99088 22.97083,2.22907 5.45682,3.32956 7.35706,3.41354 8.12369,0.35902 z m 21.73013,-22.214725 c 4.42328,-6.532268 4.47788,-6.67416 2.07292,-5.387061 -3.39184,1.815261 -10.89897,1.675873 -12.81505,-0.237939 -1.56472,-1.562856 -1.48013,-1.640625 1.78424,-1.640625 1.88475,0 3.68754,0.421875 4.00622,0.9375 0.31868,0.515625 1.26625,0.9375 2.10573,0.9375 1.17409,0 0.94499,-0.606772 -0.99283,-2.629424 -4.32431,-4.513602 -2.41427,-8.562905 2.51546,-5.332819 1.41183,0.925065 3.15192,1.3082 4.29449,0.945562 1.51337,-0.480326 1.9209,-0.198477 1.9209,1.328505 0,3.026983 1.5191,2.283395 3.22261,-1.577449 0.85315,-1.933594 3.00833,-5.620175 4.78929,-8.192403 3.10205,-4.480278 4.16126,-7.979472 2.41539,-7.979472 -0.45249,0 -1.34789,0.632812 -1.98979,1.40625 -1.59509,1.921968 -3.83725,1.765507 -8.21942,-0.573563 l -3.70911,-1.979813 -4.32357,4.323563 c -4.85155,4.851556 -7.32528,5.413615 -8.87328,2.016112 -0.6373,-1.398715 -2.26572,-2.632644 -4.13486,-3.133177 -3.90738,-1.046349 -4.86599,-0.681765 -6.42462,2.443475 -0.69353,1.390622 -2.0692,3.453341 -3.05704,4.583821 -1.78452,2.042216 -1.77727,2.078212 1.12918,5.604229 1.60887,1.951846 2.92522,4.220965 2.92522,5.042487 0,2.582881 7.86791,9.901563 12.27758,11.420526 5.99819,2.06616 6.12906,2.03263 9.08034,-2.325785 z M 150.46875,97.5 c -0.31868,-0.515625 -1.00128,-0.9375 -1.5169,-0.9375 -0.51563,0 -0.67678,0.421875 -0.3581,0.9375 0.31868,0.515625 1.00128,0.9375 1.5169,0.9375 0.51563,0 0.67678,-0.421875 0.3581,-0.9375 z m -19.6875,-8.4375 c 0.31868,-0.515625 -0.1032,-0.9375 -0.9375,-0.9375 -0.8343,0 -1.25618,0.421875 -0.9375,0.9375 0.31868,0.515625 0.74055,0.9375 0.9375,0.9375 0.19695,0 0.61882,-0.421875 0.9375,-0.9375 z m 7.73482,-1.171875 C 137.92541,86.116697 135,85.8645 135,87.587509 c 0,0.869658 0.80156,1.474991 1.95312,1.474991 1.14561,0 1.79181,-0.484515 1.56295,-1.171875 z m -12.57037,-3.93663 c 0.34843,-0.907989 0.0708,-1.185626 -0.8372,-0.837199 -0.74717,0.28672 -1.3585,0.898047 -1.3585,1.358506 0,1.347773 1.62667,0.961566 2.1957,-0.521307 z m 18.82961,-8.505374 c 2.19109,-1.657657 1.66499,-2.443012 -1.14438,-1.708344 -1.13763,0.297498 -2.06843,1.124516 -2.06843,1.837815 0,1.640469 0.92244,1.603296 3.21281,-0.129471 z m 38.03719,-8.059278 c 0,-0.515625 -0.42188,-0.676767 -0.9375,-0.358093 -0.51563,0.318674 -0.9375,1.001282 -0.9375,1.516907 0,0.515625 0.42187,0.676767 0.9375,0.358093 0.51562,-0.318674 0.9375,-1.001282 0.9375,-1.516907 z m -42.57338,-2.46272 c -1.02412,-1.024125 -1.72638,0.604553 -0.9911,2.29857 0.6972,1.60628 0.74774,1.604815 1.13619,-0.03294 0.2236,-0.942701 0.15831,-1.962233 -0.14509,-2.265626 z m 30.38588,0.809672 c 0,-0.725783 -7.06838,-2.975808 -9.08702,-2.892605 -0.4162,0.01716 0.23922,0.860904 1.4565,1.875 2.21788,1.847674 7.63052,2.569504 7.63052,1.017605 z m 18.75,-2.510373 c 0,-1.258633 -0.42188,-2.288422 -0.9375,-2.288422 -0.51563,0 -0.9375,1.290523 -0.9375,2.867828 0,1.673158 0.39054,2.626461 0.9375,2.288422 0.51562,-0.318674 0.9375,-1.609196 0.9375,-2.867828 z m -9.10762,-2.95553 c 0.29021,-1.518162 -0.0135,-2.934235 -0.75394,-3.515625 -0.68194,-0.535435 -1.46177,-3.082892 -1.73296,-5.661017 -0.83816,-7.968066 -1.69587,-11.71875 -2.67989,-11.71875 -0.55096,0 -0.66774,0.878595 -0.28035,2.109375 1.25129,3.975496 1.67017,12.631383 0.64203,13.266815 -0.95999,0.593298 -1.71461,-1.454612 -3.7659,-10.21994 -0.86315,-3.68834 -0.881,-3.649803 -1.08555,2.34375 -0.26766,7.842562 -0.14989,8.536089 1.83072,10.78125 0.90973,1.03125 1.91463,2.613281 2.23308,3.515625 0.33519,0.949711 1.53241,1.640625 2.84292,1.640625 1.71743,0 2.38117,-0.613601 2.74983,-2.542108 z M 146.25,56.280509 c 0,-2.261446 -0.63922,-4.068387 -1.81593,-5.133297 -2.71541,-2.457415 -4.17822,-0.967682 -2.25189,2.293337 1.31507,2.22623 1.37826,2.93795 0.36884,4.154222 -0.979,1.179633 -0.98714,1.746027 -0.0414,2.885539 1.79003,2.156837 3.74042,-0.0331 3.74042,-4.199801 z m 3.75,3.306069 c 0,-1.258632 0.42187,-2.549154 0.9375,-2.867828 0.54696,-0.338039 0.9375,0.615264 0.9375,2.288422 0,4.055841 1.58238,3.5696 2.10813,-0.647797 0.24105,-1.933594 0.38952,-3.589086 0.32995,-3.678871 -0.0595,-0.08978 -1.3708,-0.300724 -2.91382,-0.46875 -2.68661,-0.292556 -2.81773,-0.136636 -3.09379,3.678871 -0.17056,2.357411 0.11655,3.984375 0.70312,3.984375 0.54528,0 0.99141,-1.029789 0.99141,-2.288422 z M 163.125,59.0625 c 0,-1.03125 -0.17644,-1.875 -0.39207,-1.875 -0.21565,0 -1.0594,-0.256073 -1.875,-0.569052 -1.03825,-0.39841 -1.48293,-0.02357 -1.48293,1.25 0,2.131322 0.76386,3.069052 2.5,3.069052 0.6875,0 1.25,-0.84375 1.25,-1.875 z m 22.76165,-3.984375 c 5.43583,-3.824344 6.60962,-6.177753 3.48835,-6.993985 -1.46699,-0.383626 -1.875,-1.278765 -1.875,-4.113583 0,-4.613433 -1.81412,-16.558887 -2.96198,-19.5038 -0.66746,-1.712391 -1.13917,-1.990612 -1.96864,-1.161136 -0.82947,0.829475 -0.68077,2.155301 0.62062,5.533242 1.8654,4.841915 3.31699,23.661137 1.82506,23.661137 -1.14412,0 -2.91328,-6.644805 -3.63557,-13.654816 -0.67429,-6.544331 -1.84217,-9.298374 -2.84019,-6.697597 -0.34324,0.89446 -0.12718,2.224997 0.48011,2.95675 0.61301,0.73863 1.34769,5.946177 1.65159,11.706811 0.30107,5.706994 0.92315,10.376352 1.38241,10.376352 0.45926,0 2.18421,-0.949219 3.83324,-2.109375 z M 133.125,51.09375 c 0,-0.773438 -0.42188,-1.40625 -0.9375,-1.40625 -0.51563,0 -0.9375,0.632812 -0.9375,1.40625 0,0.773437 0.42187,1.40625 0.9375,1.40625 0.51562,0 0.9375,-0.632813 0.9375,-1.40625 z m 35.625,0.04574 c 0,-1.499965 -2.0501,-9.450117 -3.75895,-14.576991 -0.60153,-1.804688 -1.26448,-3.835333 -1.47325,-4.512546 -0.20876,-0.677212 -0.76393,-0.993741 -1.23371,-0.703397 -0.47557,0.293915 -0.063,2.610126 0.93087,5.225726 1.83161,4.820407 2.40139,11.240217 0.9976,11.240217 -0.4331,0 -1.35135,-1.708649 -2.04057,-3.796997 -1.7835,-5.404032 -2.79699,-5.471486 -2.79699,-0.186157 0,4.42562 0.12166,4.627285 3.98437,6.604823 4.72157,2.417229 5.39063,2.504769 5.39063,0.705322 z m -10.81943,-3.265218 c 0.66709,-1.079378 -2.98008,-8.236281 -5.46203,-10.718234 -1.80639,-1.806395 -1.8182,-1.771665 -1.25424,3.692494 0.37799,3.662333 1.11746,5.916862 2.20044,6.708754 1.92672,1.40886 3.76142,1.537645 4.51583,0.316986 z M 144.375,42.1875 c 0,-0.515625 -0.84375,-0.9375 -1.875,-0.9375 -1.03125,0 -1.875,0.421875 -1.875,0.9375 0,0.515625 0.84375,0.9375 1.875,0.9375 1.03125,0 1.875,-0.421875 1.875,-0.9375 z m -2.57813,-5.371955 c 0.90235,-0.259451 1.64063,-0.8444 1.64063,-1.299887 0,-1.422273 -2.24352,-0.869491 -4.6875,1.154957 -1.89866,1.572738 -1.98768,1.815634 -0.46875,1.279041 1.03125,-0.36431 2.61328,-0.874659 3.51562,-1.134111 z m 16.66483,-3.071899 c -0.48663,-2.070315 -0.80507,-2.527223 -0.86574,-1.242196 -0.0964,2.042721 0.82947,5.323114 1.35433,4.798253 0.15464,-0.15464 -0.0652,-1.754865 -0.48859,-3.556057 z m 15.65838,-2.571771 c -0.37372,-1.5625 -0.42642,-1.5625 -1.10655,0 -0.39277,0.902344 -0.39277,2.378906 0,3.28125 0.68013,1.5625 0.73283,1.5625 1.10655,0 0.21582,-0.902344 0.21582,-2.378906 0,-3.28125 z m -4.80103,2.0327 C 169.00607,32.388965 168.75,31.30938 168.75,30.805496 c 0,-0.503884 -0.42188,-0.65542 -0.9375,-0.336746 -1.52794,0.944317 -1.08626,4.21875 0.56905,4.21875 0.98862,0 1.31092,-0.509816 0.9375,-1.482925 z m -4.69014,-7.638169 c -0.95299,-0.952983 -1.7393,0.481774 -0.95739,1.746921 0.59065,0.955703 0.81148,0.956443 1.12903,0.0038 0.21712,-0.651361 0.13988,-1.439176 -0.17164,-1.7507 z m -6.10973,-0.54722 C 157.95863,24.458634 157.5,22.870271 157.5,21.489491 c 0,-3.512712 -3.0193,-10.364661 -3.53864,-8.030535 -0.21296,0.957114 0.0742,2.201645 0.63822,2.765625 0.56398,0.563981 1.02542,2.122562 1.02542,3.463514 0,3.032802 2.03647,7.51027 3.11319,6.844814 0.4401,-0.271995 0.34155,-0.95317 -0.21901,-1.513723 z M 180,25.680948 c 0,-0.988614 -0.50981,-1.310917 -1.48293,-0.9375 -0.8156,0.312979 -1.68425,0.569052 -1.93032,0.569052 -0.24608,0 -0.18668,0.421875 0.132,0.9375 C 177.64196,27.743784 180,27.33484 180,25.680948 Z m -28.05171,-5.357656 c -0.55593,-0.555936 -1.01725,-2.086573 -1.02514,-3.401417 -0.0114,-1.89812 -0.20455,-2.100916 -0.9375,-0.984375 -0.82058,1.25 -1.03635,1.25 -1.94198,0 -0.79426,-1.096292 -0.87603,-0.889653 -0.37099,0.9375 0.3563,1.289063 0.85829,3.692292 1.11554,5.34051 0.57695,3.696689 3.40668,4.695808 3.8632,1.364017 0.16922,-1.234994 -0.14719,-2.7003 -0.70313,-3.256235 z M 166.875,18.75 c 0,-0.515625 -0.42188,-0.9375 -0.9375,-0.9375 -0.51563,0 -0.9375,0.421875 -0.9375,0.9375 0,0.515625 0.42187,0.9375 0.9375,0.9375 0.51562,0 0.9375,-0.421875 0.9375,-0.9375 z m 12.1875,-0.46875 c 0,-0.773438 -0.39698,-1.40625 -0.88217,-1.40625 -1.18217,0 -2.02884,1.46399 -1.27985,2.212987 1.05581,1.055798 2.16202,0.643022 2.16202,-0.806737 z m -5.625,0.05533 c 0,-0.227382 -0.42188,-0.674154 -0.9375,-0.992828 -0.51563,-0.318674 -0.9375,-0.132634 -0.9375,0.413421 0,0.546053 0.42187,0.992826 0.9375,0.992826 0.51562,0 0.9375,-0.186039 0.9375,-0.413422 z m 11.03515,-0.699862 c -0.57944,-1.738334 -2.59765,-2.02665 -2.59765,-0.371094 0,0.816406 0.66797,1.484375 1.48437,1.484375 0.81641,0 1.31739,-0.500977 1.11328,-1.113281 z m 5.91314,-7.625927 C 189.66307,9.2880695 189.375,9.8104519 189.375,11.84375 c 0,3.700836 1.31547,5.025381 1.71392,1.725735 0.16922,-1.401346 -0.14719,-3.002758 -0.70313,-3.558693 z M 183.90603,8.90625 c 0.29177,-1.7493787 -0.18976,-1.8704074 -7.18728,-1.8064509 -5.83883,0.053366 -7.5,0.3648362 -7.5,1.40625 0,0.9964556 1.31535,1.3377009 5.15625,1.3377009 2.97554,0 5.70567,0.521104 6.45535,1.232143 1.47139,1.395543 2.61567,0.58834 3.07568,-2.169643 z M 165.69278,9.4184625 C 167.12487,7.1253367 166.70542,6.8797531 159.3065,5.6792674 151.67149,4.4404785 146.25,4.4179449 146.25,5.625 c 0,0.515625 2.08447,0.9375 4.63217,0.9375 2.54769,0 4.88892,0.415419 5.20271,0.9231533 0.3138,0.5077343 1.66893,0.8322482 3.0114,0.7211421 1.46622,-0.1213485 2.84954,0.4458935 3.46436,1.4205965 1.30358,2.0666001 1.72877,2.0382371 3.13214,-0.2089294 z"
     id="path3386"
     inkscape:connector-curvature="0" />
</svg>
